<?xml version="1.0" encoding="utf-8"?>
<!-- Generator: Adobe Illustrator 26.3.1, SVG Export Plug-In . SVG Version: 6.00 Build 0)  -->
<svg version="1.1" id="Layer_1" xmlns="http://www.w3.org/2000/svg" xmlns:xlink="http://www.w3.org/1999/xlink" x="0px" y="0px"
	 viewBox="0 0 500 500" style="enable-background:new 0 0 500 500;" xml:space="preserve">
<style type="text/css">
	.st0{fill:#3D5A80;}
	.st1{fill:#FFFFFF;fill-opacity:0;}
	.st2{fill:#263238;stroke:#263238;stroke-width:1.193;stroke-linecap:round;stroke-linejoin:round;}
	.st3{fill:#F2E9E4;stroke:#263238;stroke-width:1.193;stroke-linecap:round;stroke-linejoin:round;}
	.st4{fill:none;stroke:#FFFFFF;stroke-width:1.193;stroke-linecap:round;stroke-linejoin:round;}
	.st5{fill:none;stroke:#263238;stroke-width:1.193;stroke-linecap:round;stroke-linejoin:round;}
	.st6{fill:#F2E9E4;stroke:#231F20;stroke-linecap:round;stroke-linejoin:round;}
	.st7{fill:#263238;}
	.st8{fill:#98C1D9;stroke:#263238;stroke-width:1.193;stroke-linecap:round;stroke-linejoin:round;}
	.st9{fill:#757575;stroke:#263238;stroke-width:1.193;stroke-linecap:round;stroke-linejoin:round;}
	.st10{fill:#C9ADA7;stroke:#263238;stroke-width:1.193;stroke-linecap:round;stroke-linejoin:round;}
	.st11{fill:none;stroke:#263238;stroke-width:1.193;stroke-miterlimit:10;}
	.st12{fill:#98C1D9;}
	.st13{clip-path:url(#SVGID_00000140696049497640641290000014543509147223456392_);}
	.st14{opacity:0.18;enable-background:new    ;}
	.st15{fill:#FFF5EE;}
	.st16{clip-path:url(#SVGID_00000036210565349342490180000005437431862692351374_);}
	.st17{opacity:0.5;fill:#FFFFFF;enable-background:new    ;}
	.st18{clip-path:url(#SVGID_00000119103990547823649960000006127799262523226029_);}
	.st19{opacity:0.3;enable-background:new    ;}
	.st20{fill:#757575;}
	.st21{clip-path:url(#SVGID_00000076562546581500570820000000507122614963996087_);}
	.st22{clip-path:url(#SVGID_00000081614698510443538410000008707855456790300048_);}
	.st23{fill:none;}
</style>
<g id="freepik--background-simple--inject-2">
	<path class="st0" d="M44.3,258.1c0,0,2.3,73,63.3,121.6s145.3,52.1,213.6,56.7S442,402.4,450,344s-44.3-75.6-72.6-142.2
		s-25.8-88.4-85.8-129.4S137.9,56.6,88.7,126.7S44.3,258.1,44.3,258.1z"/>
	<path class="st1" d="M44.3,258.1c0,0,2.3,73,63.3,121.6s145.3,52.1,213.6,56.7S442,402.4,450,344s-44.3-75.6-72.6-142.2
		s-25.8-88.4-85.8-129.4S137.9,56.6,88.7,126.7S44.3,258.1,44.3,258.1z"/>
</g>
<g id="freepik--Hole--inject-2">
	<ellipse class="st2" cx="341.5" cy="385.8" rx="72.2" ry="21.4"/>
	<path class="st3" d="M341.5,374.2c34.1,0,62.8,7,70.3,16.5c1.2-1.4,1.9-3.1,1.9-4.9c0-11.8-32.3-21.4-72.2-21.4
		s-72.2,9.6-72.2,21.4c0.1,1.8,0.8,3.5,1.9,4.9C278.7,381.3,307.3,374.2,341.5,374.2z"/>
	<path class="st4" d="M331.6,404.5c-24.1-1.1-42.3-6-42.3-12c0-0.7,0.2-1.3,0.6-1.8"/>
	<path class="st4" d="M387.6,386.7c4.1,1.8,6.5,3.8,6.5,5.9c0,6.7-23.5,12.2-52.4,12.2h-1.2"/>
	<path class="st4" d="M296.4,386.5c9.1-3.6,26-6.1,45.3-6.1c11-0.1,22,0.8,32.8,2.7"/>
	<path class="st4" d="M330.9,396.7c-6.1-0.9-10.2-2.4-10.2-4.2c0-2.7,9.4-4.9,21-4.9s21,2.2,21,4.9c0,2.3-6.9,4.2-16.2,4.7"/>
</g>
<g id="freepik--Landscape--inject-2">
	<path class="st5" d="M51.5,299.7c31.5-9,97.8-26.6,134.3-27.9c49.2-1.7,132.2,33.9,184,40.2s86.6,4.5,86.6,4.5"/>
	<path class="st5" d="M34,304.8c0,0,2.7-0.8,7.5-2.2"/>
	<path class="st5" d="M442.5,249.1c-18.2-4-36.7-5.7-55.3-5.2c-38.4,1.3-80,6.4-131.4,13c-51.4,6.6-124.6-30-174.4-16.4
		s-46,17.7-46,17.7"/>
	<path class="st5" d="M456.6,252.8c0,0-1.9-0.6-5.5-1.6"/>
</g>
<g id="freepik--Clouds--inject-2">
	<path class="st6" d="M364.5,158.4c-1.4-5.6-7-8.9-12.5-7.6c-3.7,0.9-6.7,3.8-7.6,7.6H364.5z"/>
	<path class="st6" d="M466,158.4c-1.2-5.2-5.6-9.2-11-9.8c3.1-16.3-7.6-32-23.9-35.1c-1.9-0.4-3.8-0.5-5.7-0.5
		c-14.6,0-27,10.4-29.6,24.8c-8.4-6.5-20.4-5.1-27,3.3c-2.6,3.4-4.1,7.6-4.1,11.9c0,1.8,0.3,3.7,0.8,5.4L466,158.4z"/>
	<path class="st6" d="M185.6,182.5c-0.7-2.8-3.5-4.6-6.3-3.9c-1.9,0.5-3.4,2-3.9,3.9H185.6z"/>
	<path class="st6" d="M237.1,182.5c-0.6-2.7-2.9-4.7-5.6-5c2-8.2-3.1-16.4-11.3-18.4s-16.4,3.1-18.4,11.3c-0.1,0.5-0.2,1.1-0.3,1.6
		c-4.2-3.3-10.4-2.6-13.7,1.7c-1.3,1.7-2.1,3.8-2.1,6c0,0.9,0.1,1.9,0.4,2.8L237.1,182.5z"/>
	<path class="st6" d="M231.9,198.6c-0.4-1.8-2.2-2.9-4-2.5c-1.2,0.3-2.2,1.2-2.5,2.5H231.9z"/>
	<path class="st6" d="M264.5,198.6c-0.4-1.7-1.8-2.9-3.5-3.1c0.1-0.6,0.2-1.2,0.2-1.8c-0.1-5.3-4.4-9.6-9.8-9.5
		c-4.6,0.1-8.5,3.3-9.3,7.8c-2.7-2.1-6.6-1.6-8.6,1.1c-0.8,1.1-1.3,2.4-1.3,3.8c0,0.6,0.1,1.2,0.2,1.7H264.5z"/>
</g>
<g id="freepik--Character--inject-2">
	<path class="st7" d="M162.6,313.8c-0.4,0-0.7-0.1-1-0.3c-0.9-0.6-1.2-1.7-0.7-2.7c0.5-0.9,124.1-135.7,180.7-185.1
		c0.4-0.3,1-0.3,1.4,0.1c0.3,0.4,0.3,1-0.1,1.4C286.6,176.5,164.8,312,164.3,312.9C164,313.5,163.3,313.8,162.6,313.8z"/>
	<path class="st8" d="M169.5,287c0,0,6.1-6.5,9.8-6.5s10.6,6.1,10.2,9.4s-6.5,0.4-6.5,0.4s-5.7,7.8-11.4,6.5S169.5,287,169.5,287z"
		/>
	<path class="st8" d="M183,290.2c0,0,3.8,2.6,4.1,4.4s-4.2,7-9.1,8.2s-7.7-1.7-6.2-4.3S179.2,290.5,183,290.2z"/>
	<path class="st5" d="M337,266.6V131.3c0,0-2.7,9.8-2.7,10.5"/>
	<rect x="289.7" y="273.7" class="st8" width="103.7" height="83.1"/>
	<path class="st7" d="M338.5,273.3v-4.8c0-0.7-0.5-1.2-1.2-1.2s-1.2,0.5-1.2,1.2v4.8H338.5z"/>
	<path class="st7" d="M348,261.8v0.2c-0.2-0.4-0.6-0.6-1-0.6c-0.7,0-1.2,0.5-1.2,1.2l0,0v12.7c0,2-1.6,3.7-3.7,3.7
		c-0.5,0-1-0.1-1.5-0.3c-0.5,0.8-0.4,1.9,0.3,2.6c0.4,0.1,0.8,0.1,1.2,0.1c3.3,0,6-2.7,6-6v-5.9h2.7L348,261.8z"/>
	<path class="st5" d="M337.1,130c0,0,2.1-7.5,0.2-6.8S337.1,130,337.1,130z"/>
	<path class="st5" d="M337.1,130c0,0-8-2.8-7.3-0.2S337.1,130,337.1,130z"/>
	<path class="st2" d="M164.6,195.6c0,0-9.9-5.5-29.2-2.8s-23.1,18.7-19.9,35.3s21.5,30.6,24.2,29.5s-0.8-38.3,5.5-45.4
		s26.9-5.9,28-11.4S164.6,195.6,164.6,195.6z"/>
	<path class="st9" d="M130.2,205.5l2,13.1c0,0-12.4,33.9-10.4,38.5s20.8,6.4,20.8,6.4s30.5,3.7,39.6,0s4.4-14.4,3.4-17.4
		s-6.7-27.1-6.7-27.1s2-5.7,2-8.7s-0.3-11.4-1.7-13.4s-24.8-4.4-35.2-2.7S128.8,198.4,130.2,205.5z"/>
	<path class="st10" d="M135.6,220.6c0,0-0.3,29.1,1.3,34.9s8.4,12.4,22.4,10.7s15.4-15.1,15.4-15.1l-1-31.2L135.6,220.6z"/>
	<path class="st11" d="M159.7,241.5c0,1.4-1.1,2.5-2.5,2.5s-2.5-1.1-2.5-2.5s1.1-2.5,2.5-2.5l0,0C158.5,239,159.7,240.1,159.7,241.5
		L159.7,241.5z"/>
	<path class="st7" d="M159.3,252.1c0,0.9-0.8,1.7-1.7,1.7s-1.7-0.8-1.7-1.7s0.8-1.7,1.7-1.7l0,0
		C158.6,250.4,159.3,251.1,159.3,252.1L159.3,252.1z"/>
	<path class="st7" d="M147.9,230.3c1.6-0.2,2.9,0.3,3,1.1s-1,1.7-2.6,2c-1.6,0.2-2.9-0.2-3-1.1C145.1,231.4,146.3,230.5,147.9,230.3
		z"/>
	<path class="st7" d="M164.1,230.3c-1.6-0.3-2.9,0.3-3,1c-0.1,0.8,1,1.7,2.6,1.9s2.9-0.2,3-1C166.9,231.4,165.7,230.6,164.1,230.3z"
		/>
	<path class="st5" d="M141.7,227.2c1.5-2.3,4.4-3.3,7-2.6"/>
	<path class="st5" d="M162.3,224.6c0,0,4.8-1.5,6.3,2.6"/>
	<path class="st2" d="M178.4,411.6c0,0,5.3-3.2,8.2-4.4c0.3-0.1,0.6-0.2,0.8-0.3c2.6-0.9,9.9-0.4,16.8-4.7s3.4-9.5-1.7-10.8
		s-10.7-3-10.7-3l-1.3-20.2c0,0-15.5,4.3-20.6,6.5s-2.1,32.7-1.7,35.2S168.6,414.2,178.4,411.6z"/>
	<path class="st3" d="M195.6,402.2c-9,1.7-9,3.4-18.9,5.2c-2.9,0.6-5.9,0.8-8.8,0.7c0.1,0.9,0.2,1.6,0.2,1.9
		c0.4,2.6,0.4,4.3,10.3,1.7c0,0,5.3-3.2,8.2-4.4c0.3-0.1,0.6-0.2,0.8-0.3c2.6-0.9,9.9-0.4,16.8-4.7c2.2-1.4,3.3-2.8,3.7-4.2
		C204,399.8,199.9,401.3,195.6,402.2z"/>
	<path class="st2" d="M199.2,391.1c0,0-0.3,23.5-1,28.5s0.3,11.4,8,11.4s22.8-5,28.1-6s14.1-3.4,17.8-11.7s-18.8-7.4-18.8-7.4
		l1.3-17.1C234.7,388.8,211.6,393.5,199.2,391.1z"/>
	<path class="st3" d="M252.2,413.3c0.4-0.8,0.5-1.7,0.3-2.6c-2.3,3.1-5.4,5.5-9,7c-8,3.4-23.1,7-34.5,8.7c-5.2,0.8-8.5-0.1-10.6-1.2
		c0.7,3.2,2.9,5.9,7.9,5.9c7.7,0,22.8-5,28.1-6S248.5,421.6,252.2,413.3z"/>
	<path class="st4" d="M233.4,405.9c0,0,1.7,5.7-3,9.4"/>
	<path class="st9" d="M196.9,378.8c0,0-0.5,10.2,0.1,12.2c2.1,7.7,2.8,5.9,18.9,5.6s22.6-6.8,24.3-10.8s0-12.7-0.7-15.8
		s-6-4-8.1-3.7S197.9,375.4,196.9,378.8z"/>
	<path class="st12" d="M86.3,404.2v22.5c0,1.8,1,3.4,2.6,4.3l36.2,18.7c1.3,0.7,2.8,0.7,4.2,0.1l53.3-20.3c1.7-0.8,2.9-2.5,2.9-4.4
		v-27.2l-61,18.4L86.3,404.2z"/>
	<g>
		<g>
			<g>
				<g>
					<g>
						<defs>
							<path id="SVGID_1_" d="M86.3,404.2v22.5c0,1.8,1,3.4,2.6,4.3l36.2,18.7c1.3,0.7,2.8,0.7,4.2,0.1l53.3-20.3
								c1.7-0.8,2.9-2.5,2.9-4.4v-27.2l-61,18.4L86.3,404.2z"/>
						</defs>
						<clipPath id="SVGID_00000008141930773872399240000001566057969112052927_">
							<use xlink:href="#SVGID_1_"  style="overflow:visible;"/>
						</clipPath>
						<g style="clip-path:url(#SVGID_00000008141930773872399240000001566057969112052927_);">
							<path class="st14" d="M127.2,415.5l-2.7,0.8l-38.2-12.1v22.5c0,1.8,1,3.4,2.6,4.3l36.2,18.7c0.6,0.3,1.3,0.5,2.1,0.5
								L127.2,415.5z"/>
						</g>
					</g>
				</g>
			</g>
		</g>
	</g>
	<path class="st5" d="M86.3,404.2v22.5c0,1.8,1,3.4,2.6,4.3l36.2,18.7c1.3,0.7,2.8,0.7,4.2,0.1l53.3-20.3c1.7-0.8,2.9-2.5,2.9-4.4
		v-27.2l-61,18.4L86.3,404.2z"/>
	<path class="st15" d="M142,366.2L83.5,385c-0.9,0.3-1.6,1.2-1.6,2.2v16.7c0,0.9,0.5,1.6,1.3,2l40.8,19.4c0.6,0.3,1.2,0.3,1.8,0.1
		l61.2-22.9c0.9-0.3,1.5-1.2,1.5-2.1l0.1-15.6c0-1.1-0.7-2-1.8-2.2l-43.6-16.3C142.8,366.1,142.4,366.1,142,366.2z"/>
	<g>
		<g>
			<g>
				<g>
					<g>
						<defs>
							<path id="SVGID_00000156561459222599311900000001538035193192046774_" d="M142,366.2L83.5,385c-0.9,0.3-1.6,1.2-1.6,2.2v16.7
								c0,0.9,0.5,1.6,1.3,2l40.8,19.4c0.6,0.3,1.2,0.3,1.8,0.1l61.2-22.9c0.9-0.3,1.5-1.2,1.5-2.1l0.1-15.6c0-1.1-0.7-2-1.8-2.2
								l-43.6-16.3C142.8,366.1,142.4,366.1,142,366.2z"/>
						</defs>
						<clipPath id="SVGID_00000075157062716484417700000006057479607130850969_">
							<use xlink:href="#SVGID_00000156561459222599311900000001538035193192046774_"  style="overflow:visible;"/>
						</clipPath>
						<g style="clip-path:url(#SVGID_00000075157062716484417700000006057479607130850969_);">
							<path class="st12" d="M123.9,425.2L123.9,425.2c0.6,0.3,1.2,0.3,1.8,0.1l61.3-22.9c0.9-0.3,1.5-1.2,1.5-2.1l0.1-15.6
								c0-0.5-0.2-1-0.5-1.5l-63.2,23.4L123.9,425.2z"/>
							<path class="st17" d="M123.9,425.2L123.9,425.2c0.6,0.3,1.2,0.3,1.8,0.1l61.3-22.9c0.9-0.3,1.5-1.2,1.5-2.1l0.1-15.6
								c0-0.5-0.2-1-0.5-1.5l-63.2,23.4L123.9,425.2z"/>
							<path class="st12" d="M81.9,387.1v16.7c0,0.9,0.5,1.6,1.3,2l40.8,19.5c0.3,0.1,0.6,0.2,0.9,0.2v-18.9L82,386.7
								C82,386.8,81.9,387,81.9,387.1z"/>
						</g>
					</g>
				</g>
			</g>
		</g>
	</g>
	<path class="st5" d="M142,366.2L83.5,385c-0.9,0.3-1.6,1.2-1.6,2.2v16.7c0,0.9,0.5,1.6,1.3,2l40.8,19.4c0.6,0.3,1.2,0.3,1.8,0.1
		l61.2-22.9c0.9-0.3,1.5-1.2,1.5-2.1l0.1-15.6c0-1.1-0.7-2-1.8-2.2l-43.6-16.3C142.8,366.1,142.4,366.1,142,366.2z"/>
	<path class="st2" d="M222.4,335.5c0,0,7.7,3.7,11.7,11.1s1,21.4-1.4,25.8s-18.1,6.4-23.4,6.4s-6.4-0.7-6.4-0.7s-17.1,3.4-27.8,5.4
		s-8-23.1-4.7-34.5s22.1-17.1,29.8-17.1S222.4,335.5,222.4,335.5z"/>
	<path class="st4" d="M202.9,378.1c0,0,14.4-5,20.4-17.8"/>
	<path class="st4" d="M216.6,370.7c4.6-1.9,8.9-4.8,12.4-8.4"/>
	<path class="st9" d="M182.8,346.6c0,0,4,21.1,2,29.8s-13.7,10.1-16.4,9s-1.3-21.8-1.3-32.2S177.4,343.6,182.8,346.6z"/>
	<path class="st12" d="M97.3,290.3c0,0-2.3,13.7-0.7,20.5c0.9,3.7,2.4,7.3,4.7,10.4c0,0-8.4,12.4-6.7,22.8s6,11.7,6,11.7
		s-3.7,19.1,3,25.8s21.4,14.1,37.9,11.1s27.5-3.7,30.8-9.4s1.3-30.8,1.3-30.8s-0.7-27.8-1.3-44.9s-3-30.8-11.1-37.5
		s-43.6,3.7-54.3,10.7S97.3,290.3,97.3,290.3z"/>
	<g>
		<g>
			<g>
				<g>
					<g>
						<defs>
							<path id="SVGID_00000120538773671151370850000010717030713003943564_" d="M97.3,290.3c0,0-2.3,13.7-0.7,20.5
								c0.9,3.7,2.4,7.3,4.7,10.4c0,0-8.4,12.4-6.7,22.8s6,11.7,6,11.7s-3.7,19.1,3,25.8s21.4,14.1,37.9,11.1s27.5-3.7,30.8-9.4
								s1.3-30.8,1.3-30.8s-0.7-27.8-1.3-44.9s-3-30.8-11.1-37.5s-43.6,3.7-54.3,10.7S97.3,290.3,97.3,290.3z"/>
						</defs>
						<clipPath id="SVGID_00000036944144365362370990000010907275832124370082_">
							<use xlink:href="#SVGID_00000120538773671151370850000010717030713003943564_"  style="overflow:visible;"/>
						</clipPath>
						<g style="clip-path:url(#SVGID_00000036944144365362370990000010907275832124370082_);">
							<path class="st19" d="M99.7,290.3c0,0-2.3,13.7-0.7,20.5c0.8,3.7,2.4,7.3,4.7,10.4c0,0-8.4,12.4-6.7,22.8s6,11.7,6,11.7
								s-3.7,19.1,3,25.8s21.5,14.1,37.9,11.1s27.5-3.7,30.8-9.4s1.3-30.8,1.3-30.8s-0.7-27.8-1.3-44.9s-3-30.8-11.1-37.5
								s-43.6,3.7-54.3,10.7S99.7,290.3,99.7,290.3z"/>
						</g>
					</g>
				</g>
			</g>
		</g>
	</g>
	<path class="st5" d="M97.3,290.3c0,0-2.3,13.7-0.7,20.5c0.9,3.7,2.4,7.3,4.7,10.4c0,0-8.4,12.4-6.7,22.8s6,11.7,6,11.7
		s-3.7,19.1,3,25.8s21.4,14.1,37.9,11.1s27.5-3.7,30.8-9.4s1.3-30.8,1.3-30.8s-0.7-27.8-1.3-44.9s-3-30.8-11.1-37.5
		s-43.6,3.7-54.3,10.7S97.3,290.3,97.3,290.3z"/>
	<path class="st5" d="M101.4,321.1c10.5,7.2,23.8,9,35.9,5"/>
	<path class="st5" d="M100.7,355.6c0,0,17.1,16.8,45.2,0.7"/>
	<path class="st20" d="M167.4,273.9c0,0-6.4-9.7-15.1-15.1s-31.2-9.4-40.2-11.1s-18.8-1-21.5,9s-2.3,26.8,0.3,34.2
		s13.7,11.7,22.5,6.7s32.8-24.5,41.2-25.5S166.7,277.5,167.4,273.9z"/>
	<g>
		<g>
			<g>
				<g>
					<g>
						<defs>
							<path id="SVGID_00000002374999194501758560000013146333154220209329_" d="M167.4,273.9c0,0-6.4-9.7-15.1-15.1
								s-31.2-9.4-40.2-11.1s-18.8-1-21.5,9s-2.3,26.8,0.3,34.2s13.7,11.7,22.5,6.7s32.8-24.5,41.2-25.5S166.7,277.5,167.4,273.9z"
								/>
						</defs>
						<clipPath id="SVGID_00000000903162838814492440000004566732562898230152_">
							<use xlink:href="#SVGID_00000002374999194501758560000013146333154220209329_"  style="overflow:visible;"/>
						</clipPath>
						<g style="clip-path:url(#SVGID_00000000903162838814492440000004566732562898230152_);">
							<path class="st19" d="M148.8,272c5.1-2.1-7.7,1.7-8.5,0.4s8.9-7.7,11.1-8.5s-12.4,2.1-11.9,0s14.1-2.6,4.7-4.7
								s-40-7.7-46-9.8c-0.5-0.1-0.9-0.4-1.3-0.6c-3.1,1.6-5.4,4.6-6.2,8c-2.7,10-2.3,26.8,0.3,34.2c2.3,6.4,11,10.5,19,8.2
								c3.7-3,7.1-6.9,12.9-10.6C134.3,281.3,143.7,274.1,148.8,272z"/>
						</g>
					</g>
				</g>
			</g>
		</g>
	</g>
	<path class="st5" d="M167.4,273.9c0,0-6.4-9.7-15.1-15.1s-31.2-9.4-40.2-11.1s-18.8-1-21.5,9s-2.3,26.8,0.3,34.2
		s13.7,11.7,22.5,6.7s32.8-24.5,41.2-25.5S166.7,277.5,167.4,273.9z"/>
	<path class="st8" d="M203.6,319.4c0,0,7.7,1,12.7,3s8.4,14.4,6.4,16.1s-6-0.3-6-0.3c-3.2,1.1-6.4,1.9-9.7,2.3
		C202.9,340.9,198.6,321.8,203.6,319.4z"/>
	<path class="st9" d="M178.1,318.4c0,0,1.3,0,8.7-3.4s13.4-3.4,18.1,4s6.7,16.4,4,21.8s-12.7,9-18.1,9s-6-7-6-7s-0.7-11.1-4-15.1
		S176.8,319.4,178.1,318.4z"/>
	<path class="st12" d="M153.3,273.9c7.4-2.7,16.8-1,20.1,8.4s6.4,36.9,6.4,36.9s8.4,1,11.7,4.7s5,13.1,4.4,17.8
		s-12.4,13.4-25.8,13.7s-23.1-6-27.8-23.1s-2.8-43.2-2.8-43.2s1.7-7.7,4.3-9.4"/>
	<g>
		<g>
			<g>
				<g>
					<g>
						<defs>
							<path id="SVGID_00000109016565250525070270000003782831457245220233_" d="M153.3,273.9c7.4-2.7,16.8-1,20.1,8.4
								s6.4,36.9,6.4,36.9s8.4,1,11.7,4.7s5,13.1,4.4,17.8s-12.4,13.4-25.8,13.7s-23.1-6-27.8-23.1s-2.8-43.2-2.8-43.2
								s1.7-7.7,4.3-9.4"/>
						</defs>
						<clipPath id="SVGID_00000135682641224714319660000015628281570947337894_">
							<use xlink:href="#SVGID_00000109016565250525070270000003782831457245220233_"  style="overflow:visible;"/>
						</clipPath>
						<g style="clip-path:url(#SVGID_00000135682641224714319660000015628281570947337894_);">
							<path class="st19" d="M195.9,341.5c0.7-4.7-1-14.1-4.4-17.8c-0.1-0.1-0.3-0.3-0.4-0.4c0.4,3,0.6,6,0.7,9.1
								c0.7,19.7-26.8,16.4-32.4,2.1c-3-7.7-3.8-41.3-12.8-43.9c-5.2-1.5-6.9,2.6-7.5,6.3c-0.2,9.6,0.1,24.5,3.1,35.2
								c4.7,17.1,14.4,23.5,27.8,23.1S195.2,346.2,195.9,341.5z"/>
						</g>
					</g>
				</g>
			</g>
		</g>
	</g>
	<path class="st5" d="M153.3,273.9c7.4-2.7,16.8-1,20.1,8.4s6.4,36.9,6.4,36.9s8.4,1,11.7,4.7s5,13.1,4.4,17.8s-12.4,13.4-25.8,13.7
		s-23.1-6-27.8-23.1s-2.8-43.2-2.8-43.2s1.7-7.7,4.3-9.4"/>
	<path class="st5" d="M179.8,319.1c0,0,2.6,12.2-10.8,18.9"/>
</g>
<rect x="289.7" y="294.2" class="st23" width="103.7" height="43.8"/>
</svg>
