<svg version="1.1" id="a" xmlns="http://www.w3.org/2000/svg" xmlns:xlink="http://www.w3.org/1999/xlink" x="0" y="0" viewBox="0 0 500 500" style="enable-background:new 0 0 500 500" xml:space="preserve">
    <style>
        .st1{fill:#263238}.st2{fill:#f2e9e4}.st3{fill:#fff}.st4{fill:#231f20}.st5{fill:#98c1d9}.st6{fill:#757575}.st14{opacity:.3;enable-background:new}
    </style>
    <path d="M44.3 258.1s2.3 73 63.3 121.6 145.3 52.1 213.6 56.7S442 402.4 450 344s-44.3-75.6-72.6-142.2-25.8-88.4-85.8-129.4-153.7-15.8-202.9 54.3-44.4 131.4-44.4 131.4z" style="fill:#3d5a80" id="b"/>
    <g id="c">
        <ellipse class="st1" cx="341.5" cy="385.8" rx="72.2" ry="21.4"/>
        <path class="st1" d="M341.5 407.8c-40.8 0-72.8-9.7-72.8-22s32-22 72.8-22 72.8 9.7 72.8 22-32 22-72.8 22zm0-42.8c-39.5 0-71.6 9.3-71.6 20.8s32.1 20.8 71.6 20.8 71.6-9.3 71.6-20.8S381 365 341.5 365z"/>
        <path class="st2" d="M341.5 374.2c34.1 0 62.8 7 70.3 16.5 1.2-1.4 1.9-3.1 1.9-4.9 0-11.8-32.3-21.4-72.2-21.4s-72.2 9.6-72.2 21.4c.1 1.8.8 3.5 1.9 4.9 7.5-9.4 36.1-16.5 70.3-16.5z"/>
        <path class="st1" d="M411.8 391.3c-.2 0-.4-.1-.5-.2-7.4-9.4-36.8-16.3-69.8-16.3s-62.3 6.8-69.8 16.3c-.1.1-.3.2-.5.2s-.4-.1-.5-.2c-1.2-1.5-1.9-3.4-2-5.2 0-12.4 32-22 72.8-22s72.8 9.7 72.8 22c0 1.9-.7 3.7-2 5.3-.2 0-.3.1-.5.1zm-70.3-17.7c33.2 0 61.9 6.6 70.3 16.1.9-1.2 1.3-2.6 1.3-4 0-11.5-32.1-20.8-71.6-20.8s-71.6 9.3-71.6 20.8c.1 1.4.5 2.7 1.3 3.9 8.6-9.4 37.2-16 70.3-16z"/>
        <path class="st3" d="M331.6 405.1c-20.7-.9-42.9-5.3-42.9-12.6 0-.8.2-1.6.7-2.2.2-.3.6-.3.8-.1s.3.6.1.8c-.3.4-.5.9-.5 1.4 0 5.4 17.9 10.3 41.7 11.4.3 0 .6.3.6.6.1.4-.2.7-.5.7zm10.1.3h-1.2c-.3 0-.6-.3-.6-.6s.3-.6.6-.6h1.2c31 0 51.8-6 51.8-11.6 0-1.7-2.1-3.6-6.1-5.4-.3-.1-.4-.5-.3-.8.1-.3.5-.4.8-.3 4.5 2 6.9 4.2 6.9 6.5-.1 8-27.1 12.8-53.1 12.8zm-45.3-18.3c-.2 0-.5-.1-.5-.4-.1-.3 0-.6.3-.8 9.6-3.8 27-6.1 45.5-6.1 11-.1 22.1.8 32.9 2.7.3.1.5.4.5.7s-.4.5-.7.5c-10.7-1.9-21.7-2.8-32.7-2.7-18.4 0-35.6 2.3-45.1 6.1h-.2zm50.1 10.7c-.3 0-.6-.2-.6-.6 0-.3.2-.6.6-.6 10.7-.6 15.6-2.8 15.6-4.1 0-1.8-7.8-4.3-20.4-4.3s-20.4 2.5-20.4 4.3c0 1.1 3 2.6 9.7 3.6.3 0 .5.4.5.7s-.4.6-.7.5c-4.9-.7-10.7-2.1-10.7-4.8 0-3.6 11.1-5.5 21.6-5.5s21.6 1.9 21.6 5.5c0 3.2-9 4.9-16.8 5.3z"/>
    </g>
    <path class="st1" d="M443.6 317.3c-14.6 0-40.9-.7-73.9-4.7-22-2.7-49.2-10.5-77.9-18.8-38.2-11-77.8-22.4-106-21.4-37.7 1.3-106.4 19.9-134.2 27.9-.3.1-.7-.1-.7-.4s.1-.6.4-.7c27.8-8 96.6-26.6 134.4-27.9 28.4-1 68.1 10.4 106.4 21.5 28.7 8.3 55.8 16.1 77.7 18.7 51.1 6.2 86.1 4.5 86.5 4.5.3 0 .6.2.6.6 0 .3-.2.6-.6.6 0-.1-4.5.1-12.7.1zM34 305.4c-.3 0-.5-.2-.6-.4-.1-.3.1-.6.4-.7 0 0 2.7-.8 7.5-2.2.3-.1.7.1.7.4s-.1.6-.4.7c-4.8 1.4-7.5 2.2-7.5 2.2H34zm1.4-46.6c-.2 0-.3-.1-.4-.2-.2-.2-.3-.5-.2-1 1-3.5 17.5-9.8 46.5-17.7 27-7.4 61.2 0 94.3 7.2 27.9 6 56.7 12.2 80.2 9.2 53-6.8 93.4-11.7 131.5-13 18.8-.5 37.4 1.2 55.5 5.2.3.1.5.4.5.7s-.4.5-.7.4c-17.9-3.9-36.5-5.7-55.2-5.2-38 1.3-78.4 6.2-131.3 13-23.8 3-52.7-3.2-80.6-9.2-32.9-7.1-67-14.5-93.7-7.2-43.3 11.8-45.5 16.4-45.6 16.9.1.2.1.5-.1.7-.4.1-.5.2-.7.2zm.4-1zm0 0zm420.8-4.4h-.2s-1.9-.6-5.5-1.6c-.3-.1-.5-.4-.4-.7.1-.3.4-.5.7-.4 3.6 1 5.5 1.6 5.5 1.6.3.1.5.4.4.8 0 .1-.2.3-.5.3z" id="d"/>
    <g id="e">
        <animateTransform attributeName="transform" attributeType="XML" type="translate" dur="10s" values="-20,10; 20,0; -20,10;" repeatCount="indefinite"/>
        <path class="st2" d="M364.5 158.4c-1.4-5.6-7-8.9-12.5-7.6-3.7.9-6.7 3.8-7.6 7.6h20.1z"/>
        <path class="st4" d="M364.5 158.9h-20.1c-.1 0-.3-.1-.4-.2-.1-.1-.1-.3-.1-.4.9-3.9 4-7 8-8 5.8-1.4 11.7 2.2 13.1 8 0 .1 0 .3-.1.4s-.2.2-.4.2zm-19.5-1h18.8c-1.6-4.9-6.7-7.8-11.7-6.6-3.3.8-6.1 3.4-7.1 6.6z"/>
        <path class="st2" d="M466 158.4c-1.2-5.2-5.6-9.2-11-9.8 3.1-16.3-7.6-32-23.9-35.1-1.9-.4-3.8-.5-5.7-.5-14.6 0-27 10.4-29.6 24.8-8.4-6.5-20.4-5.1-27 3.3-2.6 3.4-4.1 7.6-4.1 11.9 0 1.8.3 3.7.8 5.4H466z"/>
        <path class="st4" d="M466 158.9H365.5c-.2 0-.4-.1-.5-.4-.5-1.8-.8-3.8-.8-5.5 0-4.3 1.5-8.7 4.2-12.2 6.5-8.3 18.5-10 27.1-3.9 2.9-14.2 15.4-24.4 29.9-24.4 2.3 0 4.1.2 5.8.5 16.4 3.1 27.2 18.8 24.4 35.2 5.3.8 9.7 4.8 10.9 10.1 0 .1 0 .3-.1.4-.1.1-.3.2-.4.2zm-100.1-1h99.5c-1.4-4.8-5.5-8.2-10.4-8.8-.1 0-.3-.1-.4-.2-.1-.1-.1-.2-.1-.4 3-16-7.5-31.5-23.5-34.5-1.6-.3-3.3-.5-5.6-.5-14.3 0-26.6 10.3-29.1 24.4 0 .2-.1.3-.3.4-.2.1-.4 0-.5-.1-8.1-6.3-20-4.9-26.3 3.2-2.6 3.4-4 7.5-4 11.6 0 1.6.2 3.3.7 4.9z"/>
        <path class="st2" d="M185.6 182.5c-.7-2.8-3.5-4.6-6.3-3.9-1.9.5-3.4 2-3.9 3.9h10.2z"/>
        <path class="st4" d="M185.6 183h-10.2c-.2 0-.3-.1-.4-.2-.1-.1-.1-.3-.1-.4.6-2.1 2.2-3.7 4.3-4.3 3-.8 6.1 1.1 6.9 4.3 0 .1 0 .3-.1.4s-.2.2-.4.2zm-9.5-1h8.8c-.9-2.2-3.2-3.5-5.5-2.9-1.5.4-2.7 1.5-3.3 2.9z"/>
        <path class="st2" d="M237.1 182.5c-.6-2.7-2.9-4.7-5.6-5 2-8.2-3.1-16.4-11.3-18.4s-16.4 3.1-18.4 11.3c-.1.5-.2 1.1-.3 1.6-4.2-3.3-10.4-2.6-13.7 1.7-1.3 1.7-2.1 3.8-2.1 6 0 .9.1 1.9.4 2.8h51z"/>
        <path class="st4" d="M237.1 183h-51c-.2 0-.4-.1-.5-.3-.3-.9-.4-1.8-.4-3 0-2.2.8-4.4 2.2-6.3 1.7-2.2 4.1-3.5 6.8-3.9 2.5-.3 4.9.3 6.9 1.6.1-.3.1-.6.2-.8 2.1-8.5 10.6-13.7 19-11.7 8.3 2 13.5 10.2 11.8 18.5 2.7.5 4.9 2.6 5.5 5.3 0 .1 0 .3-.1.4s-.3.2-.4.2zm-50.6-1h50c-.7-2.2-2.7-3.7-5-4-.1 0-.3-.1-.4-.2s-.1-.3-.1-.4c1.9-7.9-3-15.9-10.9-17.8-7.9-1.9-15.9 3-17.8 10.9 0 .2-.1.5-.1.8-.1.3-.1.6-.1.8 0 .2-.1.3-.3.4-.2.1-.4 0-.5-.1-1.9-1.5-4.4-2.2-6.9-1.9-2.5.3-4.6 1.6-6.1 3.5-1.3 1.7-2 3.7-2 5.7-.1.8 0 1.6.2 2.3z"/>
        <path class="st2" d="M231.9 198.6c-.4-1.8-2.2-2.9-4-2.5-1.2.3-2.2 1.2-2.5 2.5h6.5z"/>
        <path class="st4" d="M231.9 199.1h-6.5c-.1 0-.3-.1-.4-.2-.1-.1-.1-.3-.1-.4.3-1.4 1.4-2.5 2.9-2.9 2.1-.5 4.1.8 4.6 2.9 0 .1 0 .3-.1.4s-.3.2-.4.2zm-5.8-1h5.1c-.2-.5-.6-.9-1-1.1-.6-.4-1.4-.5-2.1-.4-.9.2-1.6.8-2 1.5z"/>
        <path class="st2" d="M264.5 198.6c-.4-1.7-1.8-2.9-3.5-3.1.1-.6.2-1.2.2-1.8-.1-5.3-4.4-9.6-9.8-9.5-4.6.1-8.5 3.3-9.3 7.8-2.7-2.1-6.6-1.6-8.6 1.1-.8 1.1-1.3 2.4-1.3 3.8 0 .6.1 1.2.2 1.7h32.1z"/>
        <path class="st4" d="M264.5 199.1h-32.1c-.2 0-.4-.2-.5-.4-.1-.5-.2-1.1-.2-1.8 0-1.4.5-2.8 1.4-4.1 1-1.4 2.6-2.3 4.3-2.5 1.5-.2 3.1.1 4.4.9 1.1-4.3 5-7.4 9.6-7.5h.2c5.5 0 10 4.4 10.1 10 0 .5-.1.9-.1 1.4 1.7.4 3 1.7 3.4 3.4 0 .1 0 .3-.1.4s-.3.2-.4.2zm-31.7-1h31c-.5-1.1-1.6-1.9-2.9-2.1-.1 0-.3-.1-.3-.2s-.1-.2-.1-.4c.1-.6.2-1.2.2-1.7-.1-5.1-4.2-9.1-9.3-9-4.4.1-8.1 3.1-8.8 7.4 0 .2-.1.3-.3.4s-.4 0-.5-.1c-1.2-.9-2.7-1.4-4.2-1.1-1.5.2-2.8 1-3.6 2.1-.8 1.1-1.2 2.3-1.2 3.5-.1.4-.1.8 0 1.2z"/>
    </g>
    <g id="f">
        <path class="st1" d="M162.6 313.8c-.4 0-.7-.1-1-.3-.9-.6-1.2-1.7-.7-2.7.5-.9 124.1-135.7 180.7-185.1.4-.3 1-.3 1.4.1.3.4.3 1-.1 1.4-56.3 49.3-178.1 184.8-178.6 185.7-.3.6-1 .9-1.7.9z"/>
        <path class="st5" d="M169.5 287s6.1-6.5 9.8-6.5 10.6 6.1 10.2 9.4-6.5.4-6.5.4-5.7 7.8-11.4 6.5-2.1-9.8-2.1-9.8z"/>
        <path class="st1" d="M172.9 297.5c-.5 0-1 0-1.4-.2-1.4-.3-2.5-1.1-3.1-2.3-1.6-3.1.5-8.1.6-8.3 0-.1.1-.1.1-.2.3-.3 6.3-6.7 10.2-6.7 2.6 0 6.2 2.5 8.5 5 1 1.1 2.6 3.2 2.3 5-.1.8-.5 1.4-1.1 1.8-1.6.9-4.6-.2-5.8-.7-1.2 1.6-5.5 6.6-10.3 6.6zm-2.9-10.2c-.3.7-1.8 4.8-.6 7.2.4.9 1.2 1.4 2.3 1.7 5.2 1.2 10.7-6.2 10.8-6.3.2-.2.5-.3.7-.2 1.4.7 4.1 1.5 5.1.9.2-.1.4-.3.5-.9.1-1-.6-2.5-2-4.1-2.3-2.6-5.6-4.6-7.6-4.6-2.7.1-7.5 4.5-9.2 6.3z"/>
        <path class="st5" d="M183 290.2s3.8 2.6 4.1 4.4-4.2 7-9.1 8.2-7.7-1.7-6.2-4.3 7.4-8 11.2-8.3z"/>
        <path class="st1" d="M175.8 303.7c-2.2 0-3.6-.9-4.4-1.8-.8-1.1-.9-2.4-.2-3.6 1.6-2.8 7.6-8.3 11.7-8.6.1 0 .3 0 .4.1.4.3 4 2.8 4.4 4.8.4 2.2-4.4 7.6-9.6 8.9-.8.1-1.6.2-2.3.2zm7-12.9c-3.5.5-9.1 5.5-10.5 8-.5.8-.4 1.6.1 2.3.7.9 2.6 1.8 5.4 1.1 4.8-1.2 8.9-6.1 8.6-7.5-.1-1.1-2.2-2.9-3.6-3.9zm154.5 4c-.3 0-.6-.3-.6-.6V135.7c-1 3.8-2.1 7.7-2.1 8.2 0 .3-.3.6-.6.6s-.6-.3-.6-.6c0-.8 2.5-10 3.3-12.8.1-.3.4-.5.7-.4.3 0 .5.3.5.6v162.9c0 .3-.3.6-.6.6zm-.2-164.2c-.3 0-.5-.2-.6-.4-.4-1.6-1.7-6.7.6-7.5.6-.2 1 0 1.1.2 1 1 .1 5-.5 7.3-.1.2-.3.4-.6.4zm.3-6.8c-.5.3-.5 1.8-.3 3.5.4-1.7.5-3 .3-3.5z"/>
        <path class="st1" d="M332.2 131.6c-.7 0-1.4-.1-1.9-.4-.5-.3-.9-.7-1-1.3-.2-.8.1-1.2.3-1.4 1.4-1.2 6.3.3 7.7.9.2.1.4.3.4.6s-.2.5-.4.6c-.4.1-2.9 1-5.1 1zm-1-2.3c-.4 0-.7.1-.8.2v.2c.1.2.2.4.4.5.9.4 2.7.2 4.2-.2-1.5-.4-2.9-.7-3.8-.7zm-166.6 66.3s-9.9-5.5-29.2-2.8-23.1 18.7-19.9 35.3 21.5 30.6 24.2 29.5-.8-38.3 5.5-45.4 26.9-5.9 28-11.4-8.6-5.2-8.6-5.2z"/>
        <path class="st1" d="M139.3 258.3c-.7 0-1.6-.3-2.8-1-6.2-3.4-19-15.4-21.7-29.1-1.5-7.8-2.1-18.8 3.6-26.8 3.6-5.1 9.3-8.2 16.8-9.2 18.2-2.6 28.1 2.1 29.4 2.8 1 0 6.2.1 8.2 2.5.8.9 1.1 2.1.8 3.4-.6 3.1-5.9 4.2-12.1 5.5-6.1 1.3-12.9 2.7-16.1 6.2-3.6 4.1-3.9 19.5-4.1 30.8-.2 10.5-.3 14.2-1.7 14.8.2 0 0 .1-.3.1zm6.3-65.6c-3 0-6.4.2-10.2.7-7.2 1-12.6 3.9-16 8.7-5.5 7.6-4.9 18.3-3.4 25.9 2.6 13.3 15 25 21.1 28.3 1.8 1 2.3.8 2.3.8.7-.7.8-7.6.9-13.7.2-12.1.4-27.1 4.4-31.6 3.4-3.8 10.4-5.3 16.7-6.6 5.5-1.1 10.7-2.2 11.2-4.6.2-1 0-1.7-.5-2.4-1.9-2.2-7.4-2.1-7.5-2.1-.1 0-.2 0-.3-.1-.1.1-6.4-3.4-18.7-3.3z"/>
        <path class="st6" d="m130.2 205.5 2 13.1s-12.4 33.9-10.4 38.5 20.8 6.4 20.8 6.4 30.5 3.7 39.6 0 4.4-14.4 3.4-17.4-6.7-27.1-6.7-27.1 2-5.7 2-8.7-.3-11.4-1.7-13.4-24.8-4.4-35.2-2.7-15.2 4.2-13.8 11.3z"/>
        <path class="st1" d="M167.8 265.8c-11.4 0-24.5-1.6-25.3-1.7-1.9-.2-19.2-2-21.3-6.8-2-4.6 8.8-34.7 10.3-38.8l-2-12.9c-.5-2.7-.2-4.8 1-6.5 1.9-2.7 5.7-4.3 13.3-5.5 9.6-1.6 34 .4 35.8 2.9 1.8 2.6 1.8 13.6 1.8 13.7 0 2.8-1.6 7.8-2 8.7.5 2.1 5.7 24.1 6.6 26.9.1.2.2.5.3.8 1.3 3.8 4.9 13.7-4 17.3-3 1.4-8.5 1.9-14.5 1.9zm-14.7-71.6c-3.4 0-6.5.2-9 .6-7.2 1.2-10.9 2.7-12.5 5-1 1.4-1.2 3.2-.8 5.6l2 13.1v.3c-4.9 13.5-11.8 34.8-10.4 38.1 1.5 3.5 15.2 5.5 20.3 6 .3 0 30.5 3.6 39.3 0 7.9-3.2 4.7-12 3.4-15.8-.1-.3-.2-.6-.3-.8-1-3-6.5-26.2-6.7-27.1v-.3c0-.1 2-5.6 2-8.5 0-4.2-.4-11.4-1.6-13.1-1-1.2-14.6-3.1-25.7-3.1z"/>
        <path d="M135.6 220.6s-.3 29.1 1.3 34.9 8.4 12.4 22.4 10.7 15.4-15.1 15.4-15.1l-1-31.2-38.1.7z" style="fill:#c9ada7"/>
        <path class="st1" d="M154.9 267.1c-11.3 0-17.1-5.9-18.6-11.4-1.6-5.8-1.3-33.9-1.3-35.1 0-.3.3-.6.6-.6l38.1-.7c.3-.1.6.2.6.6l1 31.2c0 .2-1.6 14-15.9 15.7-1.6.2-3.1.3-4.5.3zm-18.7-45.9c0 4.1-.1 28.9 1.3 34.2 1.6 5.8 8.2 11.9 21.8 10.3 13.4-1.6 14.9-14.4 14.9-14.6l-1-30.5-37 .6z"/>
        <path class="st1" d="M157.2 244.6c-1.7 0-3.1-1.4-3.1-3.1s1.4-3.1 3.1-3.1 3.1 1.4 3.1 3.1-1.4 3.1-3.1 3.1zm0-5c-1.1 0-1.9.8-1.9 1.9s.8 1.9 1.9 1.9 1.9-.8 1.9-1.9-.9-1.9-1.9-1.9zm2.1 12.5c0 .9-.8 1.7-1.7 1.7s-1.7-.8-1.7-1.7.8-1.7 1.7-1.7c1 0 1.7.7 1.7 1.7zm-11.4-21.8c1.6-.2 2.9.3 3 1.1s-1 1.7-2.6 2c-1.6.2-2.9-.2-3-1.1-.2-.9 1-1.8 2.6-2zm16.2 0c-1.6-.3-2.9.3-3 1-.1.8 1 1.7 2.6 1.9s2.9-.2 3-1c.2-.8-1-1.6-2.6-1.9zm-22.4-2.5c-.1 0-.2 0-.3-.1-.3-.2-.4-.6-.2-.8 1.6-2.5 4.8-3.6 7.6-2.9.3.1.5.4.4.7s-.4.5-.7.4c-2.4-.6-5 .3-6.4 2.4 0 .2-.2.3-.4.3zm26.9 0c-.2 0-.5-.1-.6-.4-1.3-3.5-5.4-2.3-5.6-2.2-.3.1-.6-.1-.8-.4s.1-.6.4-.8c1.9-.6 5.7-.7 7 3 .1.3-.1.6-.4.8.1 0 .1 0 0 0zm9.8 183.8s5.3-3.2 8.2-4.4c.3-.1.6-.2.8-.3 2.6-.9 9.9-.4 16.8-4.7s3.4-9.5-1.7-10.8-10.7-3-10.7-3l-1.3-20.2s-15.5 4.3-20.6 6.5-2.1 32.7-1.7 35.2.4 4.3 10.2 1.7z"/>
        <path class="st1" d="M171.4 413.5c-1.1 0-1.8-.2-2.4-.5-1-.6-1.1-1.7-1.3-2.7v-.2c-.1-.3-3.9-33.3 2.1-35.8 5.1-2.2 20-6.4 20.7-6.5.2 0 .4 0 .5.1s.2.3.2.5l1.3 19.8c1.4.4 6 1.8 10.3 2.9 3.2.8 5.6 3 5.9 5.4.2 1.3-.1 4-4.1 6.5-5 3.1-10.2 3.8-13.7 4.2-1.4.2-2.5.3-3.2.5-.1.1-.5.2-.8.3-2.8 1.2-8.1 4.3-8.1 4.4s-.1 0-.2.1c-3.3.6-5.6 1-7.2 1zM190 369c-3.1.9-15.4 4.4-19.8 6.3-4.2 1.8-2.2 29.4-1.4 34.6v.2c.2 1 .3 1.6.8 1.9 1 .7 3.8.4 8.6-.9.7-.4 5.4-3.2 8.2-4.4.3-.1.6-.2.8-.3.9-.3 2.1-.5 3.5-.6 3.4-.4 8.4-1 13.2-4 2.6-1.6 3.8-3.4 3.5-5.3-.3-2-2.3-3.7-5.1-4.4-5.1-1.3-10.7-3-10.7-3-.2-.1-.4-.3-.4-.5L190 369zm-11.6 42.6z"/>
        <path class="st2" d="M195.6 402.2c-9 1.7-9 3.4-18.9 5.2-2.9.6-5.9.8-8.8.7.1.9.2 1.6.2 1.9.4 2.6.4 4.3 10.3 1.7 0 0 5.3-3.2 8.2-4.4.3-.1.6-.2.8-.3 2.6-.9 9.9-.4 16.8-4.7 2.2-1.4 3.3-2.8 3.7-4.2-3.9 1.7-8 3.2-12.3 4.1z"/>
        <path class="st1" d="M171.2 413.6c-1.1 0-1.8-.2-2.4-.5-1-.6-1.1-1.7-1.3-2.8v-.2c0-.3-.1-.6-.1-1.1l-.1-.8c0-.2 0-.3.2-.5s.3-.2.5-.2c3 .1 5.9-.1 8.7-.7 5.1-.9 7.6-1.8 9.9-2.7 2.2-.8 4.6-1.7 9-2.5 3.8-.8 7.6-2.1 12.2-4.1.2-.1.5 0 .6.1s.2.4.2.6c-.5 1.7-1.8 3.1-3.9 4.5-5 3.1-10.2 3.8-13.7 4.2-1.4.2-2.5.3-3.2.5-.1.1-.5.2-.8.3-2.8 1.1-8 4.3-8.1 4.3s-.1 0-.2.1c-3.5 1-5.9 1.5-7.5 1.5zm-2.6-4.9v.1c.1.5.1 1 .1 1.2v.1c.2 1 .3 1.6.8 2 1 .7 3.8.4 8.7-.9.7-.4 5.4-3.3 8.2-4.4.3-.1.6-.2.8-.3.9-.3 2.1-.5 3.5-.6 3.4-.4 8.4-1 13.2-4 1.3-.8 2.2-1.7 2.8-2.5-4 1.7-7.5 2.8-11 3.5-4.3.8-6.5 1.6-8.8 2.5-2.4.9-5 1.8-10.1 2.8-2.6.3-5.3.6-8.2.5zm27-6.5z"/>
        <path class="st1" d="M199.2 391.1s-.3 23.5-1 28.5.3 11.4 8 11.4 22.8-5 28.1-6 14.1-3.4 17.8-11.7-18.8-7.4-18.8-7.4l1.3-17.1c.1 0-23 4.7-35.4 2.3z"/>
        <path class="st1" d="M206.2 431.6c-2.9 0-5.1-.9-6.6-2.6-2.4-2.8-2.3-7.1-1.9-9.5.7-4.9 1-28.2 1-28.4 0-.2.1-.3.2-.5.1-.1.3-.1.5-.1 12.1 2.3 34.9-2.2 35.1-2.3l.1.6h.6l-1.2 16.4c3.1-.1 15.6 0 18.5 4.2.8 1.2.9 2.5.2 4-4.2 9.4-14.8 11.4-18.2 12-1.6.3-4.2 1-7.2 1.8-7.1 2.1-15.7 4.4-21.1 4.4zm-6.4-39.8c-.1 4-.4 23.3-1 27.9-.3 2.1-.5 6.1 1.7 8.5 1.3 1.5 3.2 2.2 5.8 2.2 5.2 0 14.1-2.4 20.6-4.1 3-.8 5.7-1.5 7.3-1.8 9-1.7 14.7-5.4 17.4-11.4.5-1.1.5-2.1-.1-2.9-2.4-3.5-13.9-3.9-18.2-3.7-.2 0-.3-.1-.4-.2-.1-.1-.2-.3-.2-.5l1.2-16.3c-4.8 1.3-23.7 4-34.1 2.3z"/>
        <path class="st2" d="M252.2 413.3c.4-.8.5-1.7.3-2.6-2.3 3.1-5.4 5.5-9 7-8 3.4-23.1 7-34.5 8.7-5.2.8-8.5-.1-10.6-1.2.7 3.2 2.9 5.9 7.9 5.9 7.7 0 22.8-5 28.1-6s14.1-3.5 17.8-11.8z"/>
        <path class="st1" d="M206.3 431.7c-4.6 0-7.6-2.3-8.5-6.4-.1-.2 0-.5.2-.6.2-.1.4-.2.6 0 2.7 1.4 6.1 1.8 10.2 1.1 10.4-1.6 26-5.1 34.4-8.7 3.5-1.5 6.5-3.8 8.8-6.8.1-.2.4-.3.6-.2.2 0 .4.2.5.5.2 1 .1 2.1-.3 3-2.8 6.3-8.9 10.4-18.2 12.1-1.6.3-4.2 1-7.2 1.8-7.1 1.9-15.7 4.2-21.1 4.2zm-7-5.4c1 2.8 3.4 4.2 7 4.2 5.2 0 14.1-2.4 20.6-4.1 3-.8 5.7-1.5 7.3-1.8 9-1.7 14.7-5.5 17.4-11.5.1-.2.2-.4.2-.6-2.2 2.5-5 4.5-8.2 5.9-8.5 3.6-23.9 7.1-34.6 8.7-3.7.5-7 .2-9.7-.8z"/>
        <path class="st3" d="M230.4 415.9c-.2 0-.4-.1-.5-.2-.2-.3-.2-.6.1-.8 4.3-3.4 2.9-8.5 2.8-8.8-.1-.3.1-.6.4-.7.3-.1.6.1.7.4 0 .1 1.8 6.1-3.2 10 0 .1-.2.1-.3.1z"/>
        <path class="st6" d="M196.9 378.8s-.5 10.2.1 12.2c2.1 7.7 2.8 5.9 18.9 5.6s22.6-6.8 24.3-10.8 0-12.7-.7-15.8-6-4-8.1-3.7-33.5 9.1-34.5 12.5z"/>
        <path class="st1" d="M203.9 397.6c-5 0-6-1-7.5-6.4-.6-2-.2-11.3-.1-12.4v-.1c1.2-4 33.4-12.7 35-12.9 2.1-.3 7.9.5 8.8 4.2.8 3.5 2.4 12 .7 16.2-.8 1.8-5.6 10.8-24.8 11.2-3 .1-5.4.2-7.4.2-1.9-.1-3.4 0-4.7 0zm-6.4-18.7c-.1 2.9-.4 10.4.1 11.9 1.6 5.8 1.9 5.8 10.8 5.4 2-.1 4.5-.2 7.5-.2 18.5-.3 23.1-8.8 23.8-10.4 1.7-3.9-.1-12.8-.7-15.4-.6-2.7-5.6-3.5-7.4-3.2-3.2.3-32.9 9.1-34.1 11.9z"/>
        <path class="st5" d="M86.3 404.2v22.5c0 1.8 1 3.4 2.6 4.3l36.2 18.7c1.3.7 2.8.7 4.2.1l53.3-20.3c1.7-.8 2.9-2.5 2.9-4.4v-27.2l-61 18.4-38.2-12.1z"/>
        <defs>
            <path id="SVGID_1_" d="M86.3 404.2v22.5c0 1.8 1 3.4 2.6 4.3l36.2 18.7c1.3.7 2.8.7 4.2.1l53.3-20.3c1.7-.8 2.9-2.5 2.9-4.4v-27.2l-61 18.4-38.2-12.1z"/>
        </defs>
        <clipPath id="SVGID_00000073711981219730682510000001476609373192443275_">
            <use xlink:href="#SVGID_1_" style="overflow:visible"/>
        </clipPath>
        <g style="clip-path:url(#SVGID_00000073711981219730682510000001476609373192443275_)">
            <path d="m127.2 415.5-2.7.8-38.2-12.1v22.5c0 1.8 1 3.4 2.6 4.3l36.2 18.7c.6.3 1.3.5 2.1.5v-34.7z" style="opacity:.18;enable-background:new"/>
        </g>
        <path class="st1" d="M127.2 450.8c-.8 0-1.7-.2-2.4-.6l-36.2-18.7c-1.8-1-2.9-2.8-2.9-4.8v-22.5c0-.2.1-.4.2-.5.2-.1.3-.1.5-.1l38 12 60.8-18.4c.2 0 .4 0 .5.1s.2.3.2.5V425c0 2.1-1.3 4-3.2 4.9l-53.3 20.3c-.6.5-1.4.6-2.2.6zM86.9 405v21.7c0 1.6.9 3 2.3 3.8l36.2 18.7c1.1.6 2.4.6 3.7.1l53.3-20.3c1.5-.7 2.5-2.2 2.5-3.8v-26.4L124.7 417h-.3l-37.5-12z"/>
        <path d="M142 366.2 83.5 385c-.9.3-1.6 1.2-1.6 2.2v16.7c0 .9.5 1.6 1.3 2l40.8 19.4c.6.3 1.2.3 1.8.1l61.2-22.9c.9-.3 1.5-1.2 1.5-2.1l.1-15.6c0-1.1-.7-2-1.8-2.2l-43.6-16.3c-.4-.2-.8-.2-1.2-.1z" style="fill:#fff5ee"/>
        <defs>
            <path id="SVGID_00000139290613276547357620000012607531400818210715_" d="M142 366.2 83.5 385c-.9.3-1.6 1.2-1.6 2.2v16.7c0 .9.5 1.6 1.3 2l40.8 19.4c.6.3 1.2.3 1.8.1l61.2-22.9c.9-.3 1.5-1.2 1.5-2.1l.1-15.6c0-1.1-.7-2-1.8-2.2l-43.6-16.3c-.4-.2-.8-.2-1.2-.1z"/>
        </defs>
        <clipPath id="SVGID_00000169556894485299794310000018117999394396482483_">
            <use xlink:href="#SVGID_00000139290613276547357620000012607531400818210715_" style="overflow:visible"/>
        </clipPath>
        <g style="clip-path:url(#SVGID_00000169556894485299794310000018117999394396482483_)">
            <path class="st5" d="M123.9 425.2c.6.3 1.2.3 1.8.1l61.3-22.9c.9-.3 1.5-1.2 1.5-2.1l.1-15.6c0-.5-.2-1-.5-1.5l-63.2 23.4-1 18.6z"/>
            <path d="M123.9 425.2c.6.3 1.2.3 1.8.1l61.3-22.9c.9-.3 1.5-1.2 1.5-2.1l.1-15.6c0-.5-.2-1-.5-1.5l-63.2 23.4-1 18.6z" style="opacity:.5;fill:#fff;enable-background:new"/>
            <path class="st5" d="M81.9 387.1v16.7c0 .9.5 1.6 1.3 2l40.8 19.5c.3.1.6.2.9.2v-18.9L82 386.7c0 .1-.1.3-.1.4z"/>
        </g>
        <path class="st1" d="M125 426.1c-.4 0-.8-.1-1.2-.3L83 406.4c-1.1-.5-1.6-1.5-1.6-2.5v-16.7c0-1.2.8-2.4 2-2.8l58.5-18.8c.6-.1 1.1-.1 1.6.1L187 382c1.3.3 2.2 1.4 2.2 2.8l-.1 15.6c0 1.2-.8 2.3-1.9 2.7L126 426c-.3.1-.7.1-1 .1zm17.2-59.3-58.5 18.8c-.7.2-1.2.9-1.2 1.6v16.7c0 .8.5 1.2 1 1.5l40.8 19.4c.4.2.9.2 1.4.1l61.2-22.9c.6-.2 1.1-.9 1.1-1.5l.1-15.6c0-.8-.5-1.5-1.3-1.6h-.1L143 366.9c-.3-.2-.5-.2-.8-.1z"/>
        <path class="st1" d="M222.4 335.5s7.7 3.7 11.7 11.1 1 21.4-1.4 25.8-18.1 6.4-23.4 6.4-6.4-.7-6.4-.7-17.1 3.4-27.8 5.4-8-23.1-4.7-34.5 22.1-17.1 29.8-17.1 22.2 3.6 22.2 3.6z"/>
        <path class="st1" d="M173.9 384.2c-1.6 0-2.9-.6-4-1.8-5.3-5.8-2.7-24.8-.1-33.6 3.3-11.3 21.8-17.5 30.4-17.5 7.7 0 21.8 3.5 22.3 3.6h.1c.3.2 7.9 3.9 12 11.4 4.2 7.8.9 22.2-1.4 26.4-2.7 5-19.8 6.7-23.9 6.7s-5.9-.4-6.5-.7c-1.9.4-17.6 3.5-27.6 5.4-.4.1-.9.1-1.3.1zm26.3-51.7c-8.3 0-26.1 5.9-29.2 16.7-2.9 10.1-4.6 27.5-.1 32.5 1.1 1.2 2.4 1.6 4.1 1.3 10.6-2 27.6-5.4 27.8-5.4.1 0 .3 0 .4.1 0 0 1.2.6 6.1.6 5.7 0 20.7-2.1 22.9-6.1 2.2-4 5.4-17.8 1.4-25.2-3.7-6.8-10.7-10.5-11.4-10.8-1.1-.4-14.7-3.7-22-3.7z"/>
        <path class="st3" d="M202.9 378.7c-.2 0-.5-.1-.6-.4-.1-.3.1-.6.4-.8.1 0 14.2-5.1 20.1-17.5.1-.3.5-.4.8-.3.3.1.4.5.3.8-6 12.9-20.6 18.1-20.7 18.1-.2.1-.2.1-.3.1z"/>
        <path class="st3" d="M216.6 371.3c-.2 0-.5-.1-.6-.4-.1-.3 0-.6.3-.8 4.6-1.9 8.8-4.7 12.2-8.3.2-.2.6-.2.8 0 .2.2.2.6 0 .8-3.5 3.6-7.9 6.6-12.6 8.5 0 .2 0 .2-.1.2z"/>
        <path class="st6" d="M182.8 346.6s4 21.1 2 29.8-13.7 10.1-16.4 9-1.3-21.8-1.3-32.2 10.3-9.6 15.7-6.6z"/>
        <path class="st1" d="M170.8 386.3c-1.1 0-2-.1-2.6-.4-2.3-.9-2.2-9.7-1.8-23.9.1-3.3.2-6.3.2-8.8 0-4.7 2.1-6.9 3.8-8 3.8-2.2 9.2-1.1 12.8.8.1.1.3.2.3.4.2.9 4 21.3 2 30-.8 3.3-2.9 6-6.3 7.7-3 1.6-6.1 2.2-8.4 2.2zm4.5-41.1c-1.6 0-3.1.3-4.4 1-2.1 1.3-3.2 3.6-3.2 6.9 0 2.5-.1 5.6-.2 8.9-.2 8.3-.6 22.1 1.1 22.8 1.3.5 5.9.4 9.9-1.6 2.1-1.1 4.9-3.2 5.7-6.9 1.8-7.9-1.5-26.8-1.9-29.3-2.1-1.1-4.6-1.8-7-1.8z"/>
        <path class="st5" d="M97.3 290.3s-2.3 13.7-.7 20.5c.9 3.7 2.4 7.3 4.7 10.4 0 0-8.4 12.4-6.7 22.8s6 11.7 6 11.7-3.7 19.1 3 25.8 21.4 14.1 37.9 11.1 27.5-3.7 30.8-9.4 1.3-30.8 1.3-30.8-.7-27.8-1.3-44.9-3-30.8-11.1-37.5-43.6 3.7-54.3 10.7-9.6 9.6-9.6 9.6z"/>
        <defs>
            <path id="SVGID_00000006704604365407090720000013254465782056403104_" d="M97.3 290.3s-2.3 13.7-.7 20.5c.9 3.7 2.4 7.3 4.7 10.4 0 0-8.4 12.4-6.7 22.8s6 11.7 6 11.7-3.7 19.1 3 25.8 21.4 14.1 37.9 11.1 27.5-3.7 30.8-9.4 1.3-30.8 1.3-30.8-.7-27.8-1.3-44.9-3-30.8-11.1-37.5-43.6 3.7-54.3 10.7-9.6 9.6-9.6 9.6z"/>
        </defs>
        <clipPath id="SVGID_00000002342769467711475130000017470547554944147328_">
            <use xlink:href="#SVGID_00000006704604365407090720000013254465782056403104_" style="overflow:visible"/>
        </clipPath>
        <path class="st14" d="M99.7 290.3s-2.3 13.7-.7 20.5c.8 3.7 2.4 7.3 4.7 10.4 0 0-8.4 12.4-6.7 22.8s6 11.7 6 11.7-3.7 19.1 3 25.8 21.5 14.1 37.9 11.1 27.5-3.7 30.8-9.4 1.3-30.8 1.3-30.8-.7-27.8-1.3-44.9-3-30.8-11.1-37.5-43.6 3.7-54.3 10.7-9.6 9.6-9.6 9.6z" style="clip-path:url(#SVGID_00000002342769467711475130000017470547554944147328_)"/>
        <path class="st1" d="M134 393.9c-12.9 0-24.6-5.7-30.8-11.9-6.3-6.3-3.8-22.8-3.2-25.9-1.2-.7-4.5-3.3-5.9-12-1.6-9.7 5.2-20.7 6.6-22.9-2.1-2.9-3.6-6.3-4.6-10.3-1.6-6.6.4-19.1.7-20.6-.2-.9.3-3.9 9.9-10.1 10-6.6 46.4-17.8 55-10.7 9.1 7.5 10.8 23.4 11.3 37.9.6 16.9 1.3 44.6 1.3 44.9.1 1 2 25.3-1.4 31.1-2.8 4.9-10.8 6.2-22.8 8.2-2.6.4-5.4.9-8.4 1.4-2.6.7-5.2.9-7.7.9zm18.2-125.4c-13.5 0-36.6 7.3-44.9 12.8-9.8 6.4-9.4 8.9-9.4 8.9v.3c0 .1-2.3 13.7-.7 20.3 1 3.9 2.5 7.4 4.6 10.2.2.2.2.5 0 .7-.1.1-8.2 12.3-6.6 22.4 1.6 9.8 5.6 11.2 5.6 11.2.3.1.5.4.4.7 0 .2-3.6 18.9 2.8 25.3 7.2 7.2 22 13.7 37.4 10.9 3-.5 5.8-1 8.4-1.4 11.7-2 19.4-3.2 22-7.7 3.2-5.5 1.2-30.2 1.2-30.5 0-.3-.7-28-1.3-44.9-.7-20.2-4-31.3-10.9-37.1-1.7-1.6-4.7-2.2-8.6-2.1z"/>
        <path class="st1" d="M124.4 328.8c-8.3 0-16.5-2.5-23.4-7.2-.3-.2-.3-.6-.2-.8.2-.3.6-.3.8-.2 10.2 7 23.5 8.9 35.4 4.9.3-.1.6.1.8.4s-.1.6-.4.8c-4.2 1.4-8.6 2.1-13 2.1zm-2 35c-13.9 0-22-7.7-22.1-7.8-.2-.2-.2-.6 0-.8.2-.2.6-.2.8 0 .2.2 17.1 16.3 44.5.6.3-.2.6-.1.8.2s.1.6-.2.8c-9.1 5.3-17.2 7-23.8 7z"/>
        <path class="st6" d="M167.4 273.9s-6.4-9.7-15.1-15.1-31.2-9.4-40.2-11.1-18.8-1-21.5 9-2.3 26.8.3 34.2 13.7 11.7 22.5 6.7 32.8-24.5 41.2-25.5 12.1 5.4 12.8 1.8z"/>
        <defs>
            <path id="SVGID_00000056391365997956022800000005072300347048806809_" d="M167.4 273.9s-6.4-9.7-15.1-15.1-31.2-9.4-40.2-11.1-18.8-1-21.5 9-2.3 26.8.3 34.2 13.7 11.7 22.5 6.7 32.8-24.5 41.2-25.5 12.1 5.4 12.8 1.8z"/>
        </defs>
        <clipPath id="SVGID_00000005964644974271242310000015145737047018777515_">
            <use xlink:href="#SVGID_00000056391365997956022800000005072300347048806809_" style="overflow:visible"/>
        </clipPath>
        <path class="st14" d="M148.8 272c5.1-2.1-7.7 1.7-8.5.4s8.9-7.7 11.1-8.5-12.4 2.1-11.9 0 14.1-2.6 4.7-4.7-40-7.7-46-9.8c-.5-.1-.9-.4-1.3-.6-3.1 1.6-5.4 4.6-6.2 8-2.7 10-2.3 26.8.3 34.2 2.3 6.4 11 10.5 19 8.2 3.7-3 7.1-6.9 12.9-10.6 11.4-7.3 20.8-14.5 25.9-16.6z" style="clip-path:url(#SVGID_00000005964644974271242310000015145737047018777515_)"/>
        <path class="st1" d="M105.2 300.4c-2.1 0-4.2-.4-6.2-1.1-4.2-1.6-7.3-4.5-8.6-8.1-2.8-7.8-2.9-25-.3-34.5 2.3-8.5 10-11.7 22.2-9.4l1.6.3c9.9 1.9 30.5 5.7 38.8 10.9 8.7 5.4 15.2 15.2 15.3 15.3.1.1.1.3.1.4-.1.8-.4 1.2-.9 1.5-.8.4-1.7-.1-3.1-.8-2-1-5.1-2.5-9.4-2-5.4.6-18.1 9.6-28.2 16.8-5.3 3.7-9.8 7-12.8 8.6-2.6 1.3-5.6 2.1-8.5 2.1zm-.2-52.8c-7.6 0-12.2 3.1-13.9 9.3-2.8 10.4-2.1 27 .3 33.9 1.1 3.2 4.1 6 7.9 7.4 4.6 1.7 9.6 1.3 13.7-1 2.9-1.6 7.4-4.9 12.7-8.6 10.8-7.6 23-16.3 28.7-17 4.7-.5 7.9 1.1 10 2.1.8.4 1.7.9 2 .8 0 0 .1-.1.2-.4-1-1.4-7-9.9-14.8-14.7-8.1-5.1-28.6-8.9-38.4-10.7l-1.6-.3c-2.4-.6-4.7-.8-6.8-.8z"/>
        <path class="st5" d="M203.6 319.4s7.7 1 12.7 3 8.4 14.4 6.4 16.1-6-.3-6-.3c-3.2 1.1-6.4 1.9-9.7 2.3-4.1.4-8.4-18.7-3.4-21.1z"/>
        <path class="st1" d="M206.9 341.1c-2.7 0-4.5-5.6-4.9-7.3-1.4-5-2.2-13.2 1.4-14.9.1 0 .2-.1.3 0 .3 0 7.8 1 12.8 3 3.8 1.5 6.5 8.2 7.2 12.4.3 1.7.4 3.9-.6 4.7-2 1.7-5.5.3-6.4-.1-3.4 1.1-6.5 1.9-9.6 2.2h-.2zm-3.2-21.1c-2.3 1.4-2.2 8-.6 13.4 1.2 4.4 2.9 6.5 3.9 6.5 3.1-.4 6.2-1.1 9.6-2.3h.5c1 .5 4 1.6 5.4.4.3-.2.6-1.2.2-3.6-.8-4.6-3.4-10.3-6.4-11.5-4.7-1.7-11.4-2.7-12.6-2.9z"/>
        <path class="st6" d="M178.1 318.4s1.3 0 8.7-3.4 13.4-3.4 18.1 4 6.7 16.4 4 21.8-12.7 9-18.1 9-6-7-6-7-.7-11.1-4-15.1-4-8.3-2.7-9.3z"/>
        <path class="st1" d="M190.8 350.4c-4.7 0-6.4-4.9-6.6-7.5 0-.1-.7-11-3.9-14.8-2.7-3.2-3.6-6.6-3.4-8.5.1-.8.4-1.4.8-1.7.1-.1.2-.1.3-.1.1 0 1.6-.2 8.5-3.4 8.7-4 14.5-2.7 18.9 4.2 5.1 8 6.7 17 4 22.4s-13 9.4-18.6 9.4zM178.4 319c-.1.2-.2.4-.3.8-.2 1.6.7 4.6 3.2 7.6 3.4 4.1 4.1 15 4.1 15.4 0 .2.6 6.4 5.4 6.4 5.3 0 15.1-3.6 17.6-8.7 2.5-4.9.8-13.6-4-21.2-4.1-6.4-9.2-7.5-17.4-3.8-5.9 2.8-7.9 3.3-8.6 3.5z"/>
        <path class="st5" d="M153.3 273.9c7.4-2.7 16.8-1 20.1 8.4s6.4 36.9 6.4 36.9 8.4 1 11.7 4.7 5 13.1 4.4 17.8-12.4 13.4-25.8 13.7-23.1-6-27.8-23.1-2.8-43.2-2.8-43.2 1.7-7.7 4.3-9.4"/>
        <defs>
            <path id="SVGID_00000000910072618595931070000017399723655626367362_" d="M153.3 273.9c7.4-2.7 16.8-1 20.1 8.4s6.4 36.9 6.4 36.9 8.4 1 11.7 4.7 5 13.1 4.4 17.8-12.4 13.4-25.8 13.7-23.1-6-27.8-23.1-2.8-43.2-2.8-43.2 1.7-7.7 4.3-9.4"/>
        </defs>
        <clipPath id="SVGID_00000157283641416957612780000001029725228654713779_">
            <use xlink:href="#SVGID_00000000910072618595931070000017399723655626367362_" style="overflow:visible"/>
        </clipPath>
        <path class="st14" d="M195.9 341.5c.7-4.7-1-14.1-4.4-17.8l-.4-.4c.4 3 .6 6 .7 9.1.7 19.7-26.8 16.4-32.4 2.1-3-7.7-3.8-41.3-12.8-43.9-5.2-1.5-6.9 2.6-7.5 6.3-.2 9.6.1 24.5 3.1 35.2 4.7 17.1 14.4 23.5 27.8 23.1s25.2-9 25.9-13.7z" style="clip-path:url(#SVGID_00000157283641416957612780000001029725228654713779_)"/>
        <path class="st1" d="M169.2 356c-14.1 0-23.1-7.7-27.5-23.5-4.7-17-2.8-43.1-2.8-43.4.2-.9 1.8-8.1 4.6-9.9.3-.2.6-.1.8.2.2.3.1.6-.2.8-2 1.3-3.6 7-4 9 0 .2-1.8 26.1 2.8 42.9 4.3 15.8 13 23 27.2 22.7 13.4-.3 24.7-9 25.2-13.2.6-4.3-1-13.7-4.2-17.3-3.1-3.5-11.2-4.5-11.3-4.5-.3 0-.5-.2-.5-.5s-3.1-27.5-6.4-36.8c-1.3-3.6-3.6-6.3-6.8-7.8-3.6-1.7-8.2-1.8-12.6-.2-.3.1-.6 0-.8-.4s.1-.6.4-.8c4.6-1.7 9.6-1.6 13.5.3 3.4 1.6 6 4.6 7.4 8.5 3.1 8.8 5.9 32.8 6.4 36.6 1.9.3 8.6 1.5 11.6 4.8 3.5 3.9 5.1 13.6 4.6 18.3-.7 5.3-13 13.9-26.4 14.2h-1z"/>
        <path class="st1" d="M169 338.6c-.2 0-.4-.1-.5-.3-.1-.3 0-.6.3-.8 12.8-6.4 10.6-17.8 10.5-18.2-.1-.3.1-.6.5-.7.3-.1.6.1.7.5 0 .1 2.5 12.7-11.1 19.6-.2-.1-.3-.1-.4-.1z"/>
    </g>
    <g id="l">
        <animateTransform attributeName="transform" attributeType="XML" type="translate" dur="5s" values="0,0;0,-20;0,0" repeatCount="indefinite"/>
        <path class="st5" d="M289.7 273.7h103.7v83.1H289.7z"/>
        <path class="st1" d="M393.4 357.4H289.7c-.3 0-.6-.3-.6-.6v-83.1c0-.3.3-.6.6-.6h103.7c.3 0 .6.3.6.6v83.1c0 .3-.3.6-.6.6zm-103.1-1.2h102.5v-81.9H290.3v81.9z"/>
        <path style="fill:none" d="M289.7 273.7h103.7v83.1H289.7z"/>
        <text id="_x34_04" transform="translate(298.344 330.441)" font-weight="bold" style="font-size:48px;font-family:&quot;Courier New&quot;,Courier,monospace;fill:#ee6c4d">404</text>
        <path class="st1" d="M338.5 273.3v-4.8c0-.7-.5-1.2-1.2-1.2s-1.2.5-1.2 1.2v4.8h2.4zm9.5-11.5v.2c-.2-.4-.6-.6-1-.6-.7 0-1.2.5-1.2 1.2v12.7c0 2-1.6 3.7-3.7 3.7-.5 0-1-.1-1.5-.3-.5.8-.4 1.9.3 2.6.4.1.8.1 1.2.1 3.3 0 6-2.7 6-6v-5.9h2.7l-2.8-7.7z"/>
    </g>
</svg>
