<?xml version="1.0" encoding="utf-8"?>
<!-- Generator: Adobe Illustrator 26.3.1, SVG Export Plug-In . SVG Version: 6.00 Build 0)  -->
<svg version="1.1" id="a" xmlns="http://www.w3.org/2000/svg" xmlns:xlink="http://www.w3.org/1999/xlink" x="0px" y="0px"
	viewBox="0 0 500 500" style="enable-background:new 0 0 500 500;" xml:space="preserve">
	<style type="text/css">
		.st0 {
			fill: #3D5A80;
		}

		.st1 {
			fill: #263238;
		}

		.st2 {
			fill: #F2E9E4;
		}

		.st3 {
			fill: #FFFFFF;
		}

		.st4 {
			fill: #231F20;
		}

		.st5 {
			fill: #98C1D9;
		}

		.st6 {
			fill: #757575;
		}

		.st7 {
			fill: #C9ADA7;
		}

		.st8 {
			clip-path: url(#SVGID_00000077300004511532158460000011582398643265150398_);
		}

		.st9 {
			opacity: 0.18;
			enable-background: new;
		}

		.st10 {
			fill: #FFF5EE;
		}

		.st11 {
			clip-path: url(#SVGID_00000181065676531273471590000015204524874212456605_);
		}

		.st12 {
			opacity: 0.5;
			fill: #FFFFFF;
			enable-background: new;
		}

		.st13 {
			clip-path: url(#SVGID_00000043416761757756267130000011587368068962055339_);
		}

		.st14 {
			opacity: 0.3;
			enable-background: new;
		}

		.st15 {
			clip-path: url(#SVGID_00000042728653172538307220000009096401999886140601_);
		}

		.st16 {
			clip-path: url(#SVGID_00000120557578799967409800000001468204791297302448_);
		}

		.st17 {
			fill: none;
		}

		.st18 {
			fill: #EE6C4D;
		}

		.st19 {
			font-family: "Courier New", Courier, monospace;
		}

		.st20 {
			font-size: 48px;
		}
	</style>
	<g id="b">
		<path class="st0" d="M44.3,258.1c0,0,2.3,73,63.3,121.6s145.3,52.1,213.6,56.7S442,402.4,450,344s-44.3-75.6-72.6-142.2
		s-25.8-88.4-85.8-129.4S137.9,56.6,88.7,126.7S44.3,258.1,44.3,258.1L44.3,258.1z" />
	</g>
	<g id="c">
		<g>
			<ellipse class="st1" cx="341.5" cy="385.8" rx="72.2" ry="21.4" />
			<path class="st1" d="M341.5,407.8c-40.8,0-72.8-9.7-72.8-22s32-22,72.8-22s72.8,9.7,72.8,22S382.3,407.8,341.5,407.8z M341.5,365
			c-39.5,0-71.6,9.3-71.6,20.8s32.1,20.8,71.6,20.8s71.6-9.3,71.6-20.8S381,365,341.5,365z" />
		</g>
		<g>
			<path class="st2" d="M341.5,374.2c34.1,0,62.8,7,70.3,16.5c1.2-1.4,1.9-3.1,1.9-4.9c0-11.8-32.3-21.4-72.2-21.4
			s-72.2,9.6-72.2,21.4c0.1,1.8,0.8,3.5,1.9,4.9C278.7,381.3,307.3,374.2,341.5,374.2z" />
			<path class="st1" d="M411.8,391.3L411.8,391.3c-0.2,0-0.4-0.1-0.5-0.2c-7.4-9.4-36.8-16.3-69.8-16.3s-62.3,6.8-69.8,16.3
			c-0.1,0.1-0.3,0.2-0.5,0.2c-0.2,0-0.4-0.1-0.5-0.2c-1.2-1.5-1.9-3.4-2-5.2c0-12.4,32-22,72.8-22s72.8,9.7,72.8,22
			c0,1.9-0.7,3.7-2,5.3C412.1,391.2,412,391.3,411.8,391.3L411.8,391.3z M341.5,373.6c33.2,0,61.9,6.6,70.3,16.1
			c0.9-1.2,1.3-2.6,1.3-4c0-11.5-32.1-20.8-71.6-20.8s-71.6,9.3-71.6,20.8c0.1,1.4,0.5,2.7,1.3,3.9
			C279.8,380.2,308.4,373.6,341.5,373.6L341.5,373.6z" />
		</g>
		<path class="st3" d="M331.6,405.1L331.6,405.1c-20.7-0.9-42.9-5.3-42.9-12.6c0-0.8,0.2-1.6,0.7-2.2c0.2-0.3,0.6-0.3,0.8-0.1
		s0.3,0.6,0.1,0.8c-0.3,0.4-0.5,0.9-0.5,1.4c0,5.4,17.9,10.3,41.7,11.4c0.3,0,0.6,0.3,0.6,0.6C332.2,404.8,331.9,405.1,331.6,405.1
		L331.6,405.1z" />
		<path class="st3"
			d="M341.7,405.4h-1.2c-0.3,0-0.6-0.3-0.6-0.6s0.3-0.6,0.6-0.6h1.2c31,0,51.8-6,51.8-11.6c0-1.7-2.1-3.6-6.1-5.4
		c-0.3-0.1-0.4-0.5-0.3-0.8c0.1-0.3,0.5-0.4,0.8-0.3c4.5,2,6.9,4.2,6.9,6.5C394.7,400.6,367.7,405.4,341.7,405.4L341.7,405.4z" />
		<path class="st3" d="M296.4,387.1c-0.2,0-0.5-0.1-0.5-0.4c-0.1-0.3,0-0.6,0.3-0.8c9.6-3.8,27-6.1,45.5-6.1
		c11-0.1,22.1,0.8,32.9,2.7c0.3,0.1,0.5,0.4,0.5,0.7s-0.4,0.5-0.7,0.5c-10.7-1.9-21.7-2.8-32.7-2.7c-18.4,0-35.6,2.3-45.1,6.1
		C296.5,387.1,296.5,387.1,296.4,387.1L296.4,387.1z" />
		<path class="st3" d="M346.5,397.8c-0.3,0-0.6-0.2-0.6-0.6c0-0.3,0.2-0.6,0.6-0.6c10.7-0.6,15.6-2.8,15.6-4.1
		c0-1.8-7.8-4.3-20.4-4.3s-20.4,2.5-20.4,4.3c0,1.1,3,2.6,9.7,3.6c0.3,0,0.5,0.4,0.5,0.7s-0.4,0.6-0.7,0.5
		c-4.9-0.7-10.7-2.1-10.7-4.8c0-3.6,11.1-5.5,21.6-5.5s21.6,1.9,21.6,5.5C363.3,395.7,354.3,397.4,346.5,397.8
		C346.5,397.8,346.5,397.8,346.5,397.8L346.5,397.8z" />
	</g>
	<g id="d">
		<path class="st1" d="M443.6,317.3c-14.6,0-40.9-0.7-73.9-4.7c-22-2.7-49.2-10.5-77.9-18.8c-38.2-11-77.8-22.4-106-21.4
		c-37.7,1.3-106.4,19.9-134.2,27.9c-0.3,0.1-0.7-0.1-0.7-0.4s0.1-0.6,0.4-0.7c27.8-8,96.6-26.6,134.4-27.9
		c28.4-1,68.1,10.4,106.4,21.5c28.7,8.3,55.8,16.1,77.7,18.7c51.1,6.2,86.1,4.5,86.5,4.5c0.3,0,0.6,0.2,0.6,0.6
		c0,0.3-0.2,0.6-0.6,0.6C456.3,317.1,451.8,317.3,443.6,317.3L443.6,317.3z" />
		<path class="st1" d="M34,305.4c-0.3,0-0.5-0.2-0.6-0.4c-0.1-0.3,0.1-0.6,0.4-0.7c0,0,2.7-0.8,7.5-2.2c0.3-0.1,0.7,0.1,0.7,0.4
		s-0.1,0.6-0.4,0.7c-4.8,1.4-7.5,2.2-7.5,2.2C34.1,305.4,34.1,305.4,34,305.4L34,305.4z" />
		<path class="st1" d="M35.4,258.8c-0.2,0-0.3-0.1-0.4-0.2c-0.2-0.2-0.3-0.5-0.2-1c1-3.5,17.5-9.8,46.5-17.7c27-7.4,61.2,0,94.3,7.2
		c27.9,6,56.7,12.2,80.2,9.2c53-6.8,93.4-11.7,131.5-13c18.8-0.5,37.4,1.2,55.5,5.2c0.3,0.1,0.5,0.4,0.5,0.7s-0.4,0.5-0.7,0.4
		c-17.9-3.9-36.5-5.7-55.2-5.2c-38,1.3-78.4,6.2-131.3,13c-23.8,3-52.7-3.2-80.6-9.2c-32.9-7.1-67-14.5-93.7-7.2
		c-43.3,11.8-45.5,16.4-45.6,16.9c0.1,0.2,0.1,0.5-0.1,0.7C35.7,258.7,35.6,258.8,35.4,258.8L35.4,258.8z M35.8,257.8L35.8,257.8z
		 M35.8,257.8L35.8,257.8z" />
		<path class="st1" d="M456.6,253.4c-0.1,0-0.1,0-0.2,0c0,0-1.9-0.6-5.5-1.6c-0.3-0.1-0.5-0.4-0.4-0.7c0.1-0.3,0.4-0.5,0.7-0.4
		c3.6,1,5.5,1.6,5.5,1.6c0.3,0.1,0.5,0.4,0.4,0.8C457.1,253.2,456.9,253.4,456.6,253.4L456.6,253.4z" />
	</g>
	<g id="e">
		<animateTransform attributeName="transform" attributeType="XML" type="translate" dur="10s" values="-20,10;
					20,0;
					-20,10;" repeatCount="indefinite" />
		<g>
			<path class="st2" d="M364.5,158.4c-1.4-5.6-7-8.9-12.5-7.6c-3.7,0.9-6.7,3.8-7.6,7.6H364.5z" />
			<path class="st4" d="M364.5,158.9h-20.1c-0.1,0-0.3-0.1-0.4-0.2c-0.1-0.1-0.1-0.3-0.1-0.4c0.9-3.9,4-7,8-8
			c5.8-1.4,11.7,2.2,13.1,8c0,0.1,0,0.3-0.1,0.4S364.7,158.9,364.5,158.9L364.5,158.9z M345,157.9h18.8c-1.6-4.9-6.7-7.8-11.7-6.6
			C348.8,152.1,346,154.7,345,157.9z" />
		</g>
		<g>
			<path class="st2"
				d="M466,158.4c-1.2-5.2-5.6-9.2-11-9.8c3.1-16.3-7.6-32-23.9-35.1c-1.9-0.4-3.8-0.5-5.7-0.5
			c-14.6,0-27,10.4-29.6,24.8c-8.4-6.5-20.4-5.1-27,3.3c-2.6,3.4-4.1,7.6-4.1,11.9c0,1.8,0.3,3.7,0.8,5.4L466,158.4L466,158.4z" />
			<path class="st4" d="M466,158.9H365.5c-0.2,0-0.4-0.1-0.5-0.4c-0.5-1.8-0.8-3.8-0.8-5.5c0-4.3,1.5-8.7,4.2-12.2
			c6.5-8.3,18.5-10,27.1-3.9c2.9-14.2,15.4-24.4,29.9-24.4c2.3,0,4.1,0.2,5.8,0.5c16.4,3.1,27.2,18.8,24.4,35.2
			c5.3,0.8,9.7,4.8,10.9,10.1c0,0.1,0,0.3-0.1,0.4C466.3,158.8,466.1,158.9,466,158.9L466,158.9z M365.9,157.9h99.5
			c-1.4-4.8-5.5-8.2-10.4-8.8c-0.1,0-0.3-0.1-0.4-0.2c-0.1-0.1-0.1-0.2-0.1-0.4c3-16-7.5-31.5-23.5-34.5c-1.6-0.3-3.3-0.5-5.6-0.5
			c-14.3,0-26.6,10.3-29.1,24.4c0,0.2-0.1,0.3-0.3,0.4c-0.2,0.1-0.4,0-0.5-0.1c-8.1-6.3-20-4.9-26.3,3.2c-2.6,3.4-4,7.5-4,11.6
			C365.2,154.6,365.4,156.3,365.9,157.9L365.9,157.9z" />
		</g>
		<g>
			<path class="st2" d="M185.6,182.5c-0.7-2.8-3.5-4.6-6.3-3.9c-1.9,0.5-3.4,2-3.9,3.9H185.6z" />
			<path class="st4" d="M185.6,183h-10.2c-0.2,0-0.3-0.1-0.4-0.2c-0.1-0.1-0.1-0.3-0.1-0.4c0.6-2.1,2.2-3.7,4.3-4.3
			c3-0.8,6.1,1.1,6.9,4.3c0,0.1,0,0.3-0.1,0.4S185.8,183,185.6,183L185.6,183z M176.1,182h8.8c-0.9-2.2-3.2-3.5-5.5-2.9
			C177.9,179.5,176.7,180.6,176.1,182L176.1,182z" />
		</g>
		<g>
			<path class="st2" d="M237.1,182.5c-0.6-2.7-2.9-4.7-5.6-5c2-8.2-3.1-16.4-11.3-18.4s-16.4,3.1-18.4,11.3c-0.1,0.5-0.2,1.1-0.3,1.6
			c-4.2-3.3-10.4-2.6-13.7,1.7c-1.3,1.7-2.1,3.8-2.1,6c0,0.9,0.1,1.9,0.4,2.8L237.1,182.5L237.1,182.5z" />
			<path class="st4" d="M237.1,183h-51c-0.2,0-0.4-0.1-0.5-0.3c-0.3-0.9-0.4-1.8-0.4-3c0-2.2,0.8-4.4,2.2-6.3
			c1.7-2.2,4.1-3.5,6.8-3.9c2.5-0.3,4.9,0.3,6.9,1.6v0c0.1-0.3,0.1-0.6,0.2-0.8c2.1-8.5,10.6-13.7,19-11.7
			c8.3,2,13.5,10.2,11.8,18.5c2.7,0.5,4.9,2.6,5.5,5.3c0,0.1,0,0.3-0.1,0.4S237.2,183,237.1,183L237.1,183z M186.5,182h50
			c-0.7-2.2-2.7-3.7-5-4c-0.1,0-0.3-0.1-0.4-0.2s-0.1-0.3-0.1-0.4c1.9-7.9-3-15.9-10.9-17.8c-7.9-1.9-15.9,3-17.8,10.9
			c0,0.2-0.1,0.5-0.1,0.8c-0.1,0.3-0.1,0.6-0.1,0.8c0,0.2-0.1,0.3-0.3,0.4c-0.2,0.1-0.4,0-0.5-0.1c-1.9-1.5-4.4-2.2-6.9-1.9
			c-2.5,0.3-4.6,1.6-6.1,3.5c-1.3,1.7-2,3.7-2,5.7C186.2,180.5,186.3,181.3,186.5,182L186.5,182z" />
		</g>
		<g>
			<path class="st2" d="M231.9,198.6c-0.4-1.8-2.2-2.9-4-2.5c-1.2,0.3-2.2,1.2-2.5,2.5H231.9z" />
			<path class="st4" d="M231.9,199.1h-6.5c-0.1,0-0.3-0.1-0.4-0.2c-0.1-0.1-0.1-0.3-0.1-0.4c0.3-1.4,1.4-2.5,2.9-2.9
			c2.1-0.5,4.1,0.8,4.6,2.9c0,0.1,0,0.3-0.1,0.4S232,199.1,231.9,199.1L231.9,199.1z M226.1,198.1h5.1c-0.2-0.5-0.6-0.9-1-1.1
			c-0.6-0.4-1.4-0.5-2.1-0.4C227.2,196.8,226.5,197.4,226.1,198.1L226.1,198.1z" />
		</g>
		<g>
			<path class="st2" d="M264.5,198.6c-0.4-1.7-1.8-2.9-3.5-3.1c0.1-0.6,0.2-1.2,0.2-1.8c-0.1-5.3-4.4-9.6-9.8-9.5
			c-4.6,0.1-8.5,3.3-9.3,7.8c-2.7-2.1-6.6-1.6-8.6,1.1c-0.8,1.1-1.3,2.4-1.3,3.8c0,0.6,0.1,1.2,0.2,1.7H264.5z" />
			<path class="st4" d="M264.5,199.1h-32.1c-0.2,0-0.4-0.2-0.5-0.4c-0.1-0.5-0.2-1.1-0.2-1.8c0-1.4,0.5-2.8,1.4-4.1
			c1-1.4,2.6-2.3,4.3-2.5c1.5-0.2,3.1,0.1,4.4,0.9c1.1-4.3,5-7.4,9.6-7.5c0.1,0,0.1,0,0.2,0c5.5,0,10,4.4,10.1,10
			c0,0.5-0.1,0.9-0.1,1.4c1.7,0.4,3,1.7,3.4,3.4c0,0.1,0,0.3-0.1,0.4S264.6,199.1,264.5,199.1L264.5,199.1z M232.8,198.1h31
			c-0.5-1.1-1.6-1.9-2.9-2.1c-0.1,0-0.3-0.1-0.3-0.2s-0.1-0.2-0.1-0.4c0.1-0.6,0.2-1.2,0.2-1.7c-0.1-5.1-4.2-9.1-9.3-9
			c-4.4,0.1-8.1,3.1-8.8,7.4c0,0.2-0.1,0.3-0.3,0.4s-0.4,0-0.5-0.1c-1.2-0.9-2.7-1.4-4.2-1.1c-1.5,0.2-2.8,1-3.6,2.1
			c-0.8,1.1-1.2,2.3-1.2,3.5C232.7,197.3,232.7,197.7,232.8,198.1L232.8,198.1z" />
		</g>
	</g>
	<g id="f">
		<path class="st1"
			d="M162.6,313.8c-0.4,0-0.7-0.1-1-0.3c-0.9-0.6-1.2-1.7-0.7-2.7c0.5-0.9,124.1-135.7,180.7-185.1
		c0.4-0.3,1-0.3,1.4,0.1c0.3,0.4,0.3,1-0.1,1.4C286.6,176.5,164.8,312,164.3,312.9C164,313.5,163.3,313.8,162.6,313.8L162.6,313.8z" />
		<g>
			<path class="st5"
				d="M169.5,287c0,0,6.1-6.5,9.8-6.5s10.6,6.1,10.2,9.4s-6.5,0.4-6.5,0.4s-5.7,7.8-11.4,6.5S169.5,287,169.5,287z" />
			<path class="st1" d="M172.9,297.5c-0.5,0-1,0-1.4-0.2c-1.4-0.3-2.5-1.1-3.1-2.3c-1.6-3.1,0.5-8.1,0.6-8.3c0-0.1,0.1-0.1,0.1-0.2
			c0.3-0.3,6.3-6.7,10.2-6.7c2.6,0,6.2,2.5,8.5,5c1,1.1,2.6,3.2,2.3,5c-0.1,0.8-0.5,1.4-1.1,1.8c-1.6,0.9-4.6-0.2-5.8-0.7
			C182,292.5,177.7,297.5,172.9,297.5L172.9,297.5z M170,287.3c-0.3,0.7-1.8,4.8-0.6,7.2c0.4,0.9,1.2,1.4,2.3,1.7
			c5.2,1.2,10.7-6.2,10.8-6.3c0.2-0.2,0.5-0.3,0.7-0.2c1.4,0.7,4.1,1.5,5.1,0.9c0.2-0.1,0.4-0.3,0.5-0.9c0.1-1-0.6-2.5-2-4.1
			c-2.3-2.6-5.6-4.6-7.6-4.6C176.5,281.1,171.7,285.5,170,287.3L170,287.3z" />
		</g>
		<g>
			<path class="st5"
				d="M183,290.2c0,0,3.8,2.6,4.1,4.4s-4.2,7-9.1,8.2s-7.7-1.7-6.2-4.3S179.2,290.5,183,290.2L183,290.2z" />
			<path class="st1" d="M175.8,303.7c-2.2,0-3.6-0.9-4.4-1.8c-0.8-1.1-0.9-2.4-0.2-3.6c1.6-2.8,7.6-8.3,11.7-8.6c0.1,0,0.3,0,0.4,0.1
			c0.4,0.3,4,2.8,4.4,4.8c0.4,2.2-4.4,7.6-9.6,8.9C177.3,303.6,176.5,303.7,175.8,303.7L175.8,303.7z M182.8,290.8
			c-3.5,0.5-9.1,5.5-10.5,8c-0.5,0.8-0.4,1.6,0.1,2.3c0.7,0.9,2.6,1.8,5.4,1.1c4.8-1.2,8.9-6.1,8.6-7.5
			C186.3,293.6,184.2,291.8,182.8,290.8L182.8,290.8z" />
		</g>
		<path class="st1" d="M337.3,294.8c-0.3,0-0.6-0.3-0.6-0.6V135.7c-1,3.8-2.1,7.7-2.1,8.2c0,0.3-0.3,0.6-0.6,0.6
		c-0.3,0-0.6-0.3-0.6-0.6c0-0.8,2.5-10,3.3-12.8c0.1-0.3,0.4-0.5,0.7-0.4c0.3,0,0.5,0.3,0.5,0.6v162.9
		C337.9,294.5,337.6,294.8,337.3,294.8L337.3,294.8z" />
		<path class="st1" d="M337.1,130.6L337.1,130.6c-0.3,0-0.5-0.2-0.6-0.4c-0.4-1.6-1.7-6.7,0.6-7.5c0.6-0.2,1,0,1.1,0.2
		c1,1,0.1,5-0.5,7.3C337.6,130.4,337.4,130.6,337.1,130.6L337.1,130.6z M337.4,123.8c-0.5,0.3-0.5,1.8-0.3,3.5
		C337.5,125.6,337.6,124.3,337.4,123.8z" />
		<path class="st1" d="M332.2,131.6c-0.7,0-1.4-0.1-1.9-0.4c-0.5-0.3-0.9-0.7-1-1.3c-0.2-0.8,0.1-1.2,0.3-1.4
		c1.4-1.2,6.3,0.3,7.7,0.9c0.2,0.1,0.4,0.3,0.4,0.6s-0.2,0.5-0.4,0.6C336.9,130.7,334.4,131.6,332.2,131.6L332.2,131.6z
		 M331.2,129.3c-0.4,0-0.7,0.1-0.8,0.2c0,0,0,0.1,0,0.2c0.1,0.2,0.2,0.4,0.4,0.5c0.9,0.4,2.7,0.2,4.2-0.2
		C333.5,129.6,332.1,129.3,331.2,129.3L331.2,129.3z" />
		<g>
			<path class="st1" d="M164.6,195.6c0,0-9.9-5.5-29.2-2.8s-23.1,18.7-19.9,35.3s21.5,30.6,24.2,29.5s-0.8-38.3,5.5-45.4
			s26.9-5.9,28-11.4S164.6,195.6,164.6,195.6L164.6,195.6z" />
			<path class="st1" d="M139.3,258.3c-0.7,0-1.6-0.3-2.8-1c-6.2-3.4-19-15.4-21.7-29.1c-1.5-7.8-2.1-18.8,3.6-26.8
			c3.6-5.1,9.3-8.2,16.8-9.2c18.2-2.6,28.1,2.1,29.4,2.8c1,0,6.2,0.1,8.2,2.5c0.8,0.9,1.1,2.1,0.8,3.4c-0.6,3.1-5.9,4.2-12.1,5.5
			c-6.1,1.3-12.9,2.7-16.1,6.2c-3.6,4.1-3.9,19.5-4.1,30.8c-0.2,10.5-0.3,14.2-1.7,14.8C139.8,258.2,139.6,258.3,139.3,258.3
			L139.3,258.3z M145.6,192.7c-3,0-6.4,0.2-10.2,0.7c-7.2,1-12.6,3.9-16,8.7c-5.5,7.6-4.9,18.3-3.4,25.9c2.6,13.3,15,25,21.1,28.3
			c1.8,1,2.3,0.8,2.3,0.8c0.7-0.7,0.8-7.6,0.9-13.7c0.2-12.1,0.4-27.1,4.4-31.6c3.4-3.8,10.4-5.3,16.7-6.6
			c5.5-1.1,10.7-2.2,11.2-4.6c0.2-1,0-1.7-0.5-2.4c-1.9-2.2-7.4-2.1-7.5-2.1c-0.1,0-0.2,0-0.3-0.1
			C164.2,196.1,157.9,192.6,145.6,192.7L145.6,192.7z" />
		</g>
		<g>
			<path class="st6" d="M130.2,205.5l2,13.1c0,0-12.4,33.9-10.4,38.5s20.8,6.4,20.8,6.4s30.5,3.7,39.6,0s4.4-14.4,3.4-17.4
			s-6.7-27.1-6.7-27.1s2-5.7,2-8.7s-0.3-11.4-1.7-13.4s-24.8-4.4-35.2-2.7S128.8,198.4,130.2,205.5L130.2,205.5z" />
			<path class="st1" d="M167.8,265.8c-11.4,0-24.5-1.6-25.3-1.7c-1.9-0.2-19.2-2-21.3-6.8c-2-4.6,8.8-34.7,10.3-38.8l-2-12.9
			c-0.5-2.7-0.2-4.8,1-6.5c1.9-2.7,5.7-4.3,13.3-5.5c9.6-1.6,34,0.4,35.8,2.9c1.8,2.6,1.8,13.6,1.8,13.7c0,2.8-1.6,7.8-2,8.7
			c0.5,2.1,5.7,24.1,6.6,26.9c0.1,0.2,0.2,0.5,0.3,0.8c1.3,3.8,4.9,13.7-4,17.3C179.3,265.3,173.8,265.8,167.8,265.8L167.8,265.8z
			 M153.1,194.2c-3.4,0-6.5,0.2-9,0.6c-7.2,1.2-10.9,2.7-12.5,5c-1,1.4-1.2,3.2-0.8,5.6v0l2,13.1c0,0.1,0,0.2,0,0.3
			c-4.9,13.5-11.8,34.8-10.4,38.1c1.5,3.5,15.2,5.5,20.3,6c0.3,0,30.5,3.6,39.3,0c7.9-3.2,4.7-12,3.4-15.8c-0.1-0.3-0.2-0.6-0.3-0.8
			c-1-3-6.5-26.2-6.7-27.1c0-0.1,0-0.2,0-0.3c0-0.1,2-5.6,2-8.5c0-4.2-0.4-11.4-1.6-13.1C177.8,196.1,164.2,194.2,153.1,194.2
			L153.1,194.2z" />
		</g>
		<g>
			<path class="st7"
				d="M135.6,220.6c0,0-0.3,29.1,1.3,34.9s8.4,12.4,22.4,10.7s15.4-15.1,15.4-15.1l-1-31.2L135.6,220.6z" />
			<path class="st1"
				d="M154.9,267.1c-11.3,0-17.1-5.9-18.6-11.4c-1.6-5.8-1.3-33.9-1.3-35.1c0-0.3,0.3-0.6,0.6-0.6l38.1-0.7
			c0.3-0.1,0.6,0.2,0.6,0.6l1,31.2c0,0.2-1.6,14-15.9,15.7C157.8,267,156.3,267.1,154.9,267.1L154.9,267.1z M136.2,221.2
			c0,4.1-0.1,28.9,1.3,34.2c1.6,5.8,8.2,11.9,21.8,10.3c13.4-1.6,14.9-14.4,14.9-14.6l-1-30.5L136.2,221.2L136.2,221.2z" />
		</g>
		<path class="st1" d="M157.2,244.6c-1.7,0-3.1-1.4-3.1-3.1s1.4-3.1,3.1-3.1s3.1,1.4,3.1,3.1S158.9,244.6,157.2,244.6z M157.2,239.6
		c-1.1,0-1.9,0.8-1.9,1.9s0.8,1.9,1.9,1.9s1.9-0.8,1.9-1.9S158.2,239.6,157.2,239.6z" />
		<path class="st1" d="M159.3,252.1c0,0.9-0.8,1.7-1.7,1.7s-1.7-0.8-1.7-1.7s0.8-1.7,1.7-1.7l0,0
		C158.6,250.4,159.3,251.1,159.3,252.1L159.3,252.1z" />
		<path class="st1" d="M147.9,230.3c1.6-0.2,2.9,0.3,3,1.1s-1,1.7-2.6,2c-1.6,0.2-2.9-0.2-3-1.1C145.1,231.4,146.3,230.5,147.9,230.3
		z" />
		<path class="st1"
			d="M164.1,230.3c-1.6-0.3-2.9,0.3-3,1c-0.1,0.8,1,1.7,2.6,1.9s2.9-0.2,3-1C166.9,231.4,165.7,230.6,164.1,230.3z" />
		<path class="st1" d="M141.7,227.8c-0.1,0-0.2,0-0.3-0.1c-0.3-0.2-0.4-0.6-0.2-0.8c1.6-2.5,4.8-3.6,7.6-2.9c0.3,0.1,0.5,0.4,0.4,0.7
		s-0.4,0.5-0.7,0.4c-2.4-0.6-5,0.3-6.4,2.4C142.1,227.7,141.9,227.8,141.7,227.8L141.7,227.8z" />
		<path class="st1" d="M168.6,227.8c-0.2,0-0.5-0.1-0.6-0.4c-1.3-3.5-5.4-2.3-5.6-2.2c-0.3,0.1-0.6-0.1-0.8-0.4s0.1-0.6,0.4-0.8
		c1.9-0.6,5.7-0.7,7,3c0.1,0.3-0.1,0.6-0.4,0.8C168.7,227.8,168.7,227.8,168.6,227.8L168.6,227.8z" />
		<g>
			<path class="st1" d="M178.4,411.6c0,0,5.3-3.2,8.2-4.4c0.3-0.1,0.6-0.2,0.8-0.3c2.6-0.9,9.9-0.4,16.8-4.7s3.4-9.5-1.7-10.8
			s-10.7-3-10.7-3l-1.3-20.2c0,0-15.5,4.3-20.6,6.5s-2.1,32.7-1.7,35.2S168.6,414.2,178.4,411.6L178.4,411.6z" />
			<path class="st1" d="M171.4,413.5c-1.1,0-1.8-0.2-2.4-0.5c-1-0.6-1.1-1.7-1.3-2.7l0-0.2c-0.1-0.3-3.9-33.3,2.1-35.8
			c5.1-2.2,20-6.4,20.7-6.5c0.2,0,0.4,0,0.5,0.1s0.2,0.3,0.2,0.5l1.3,19.8c1.4,0.4,6,1.8,10.3,2.9c3.2,0.8,5.6,3,5.9,5.4
			c0.2,1.3-0.1,4-4.1,6.5c-5,3.1-10.2,3.8-13.7,4.2c-1.4,0.2-2.5,0.3-3.2,0.5c-0.1,0.1-0.5,0.2-0.8,0.3c-2.8,1.2-8.1,4.3-8.1,4.4
			s-0.1,0-0.2,0.1C175.3,413.1,173,413.5,171.4,413.5L171.4,413.5z M190,369c-3.1,0.9-15.4,4.4-19.8,6.3c-4.2,1.8-2.2,29.4-1.4,34.6
			l0,0.2c0.2,1,0.3,1.6,0.8,1.9c1,0.7,3.8,0.4,8.6-0.9c0.7-0.4,5.4-3.2,8.2-4.4c0.3-0.1,0.6-0.2,0.8-0.3c0.9-0.3,2.1-0.5,3.5-0.6
			c3.4-0.4,8.4-1,13.2-4c2.6-1.6,3.8-3.4,3.5-5.3c-0.3-2-2.3-3.7-5.1-4.4c-5.1-1.3-10.7-3-10.7-3c-0.2-0.1-0.4-0.3-0.4-0.5L190,369
			L190,369z M178.4,411.6L178.4,411.6z" />
		</g>
		<g>
			<path class="st2" d="M195.6,402.2c-9,1.7-9,3.4-18.9,5.2c-2.9,0.6-5.9,0.8-8.8,0.7c0.1,0.9,0.2,1.6,0.2,1.9
			c0.4,2.6,0.4,4.3,10.3,1.7c0,0,5.3-3.2,8.2-4.4c0.3-0.1,0.6-0.2,0.8-0.3c2.6-0.9,9.9-0.4,16.8-4.7c2.2-1.4,3.3-2.8,3.7-4.2
			C204,399.8,199.9,401.3,195.6,402.2L195.6,402.2z" />
			<path class="st1"
				d="M171.2,413.6c-1.1,0-1.8-0.2-2.4-0.5c-1-0.6-1.1-1.7-1.3-2.8l0-0.2c0-0.3-0.1-0.6-0.1-1.1l-0.1-0.8
			c0-0.2,0-0.3,0.2-0.5s0.3-0.2,0.5-0.2c3,0.1,5.9-0.1,8.7-0.7c5.1-0.9,7.6-1.8,9.9-2.7c2.2-0.8,4.6-1.7,9-2.5
			c3.8-0.8,7.6-2.1,12.2-4.1c0.2-0.1,0.5,0,0.6,0.1s0.2,0.4,0.2,0.6c-0.5,1.7-1.8,3.1-3.9,4.5c-5,3.1-10.2,3.8-13.7,4.2
			c-1.4,0.2-2.5,0.3-3.2,0.5c-0.1,0.1-0.5,0.2-0.8,0.3c-2.8,1.1-8,4.3-8.1,4.3s-0.1,0-0.2,0.1C175.2,413.1,172.8,413.6,171.2,413.6
			L171.2,413.6z M168.6,408.7v0.1c0.1,0.5,0.1,1,0.1,1.2l0,0.1c0.2,1,0.3,1.6,0.8,2c1,0.7,3.8,0.4,8.7-0.9c0.7-0.4,5.4-3.3,8.2-4.4
			c0.3-0.1,0.6-0.2,0.8-0.3c0.9-0.3,2.1-0.5,3.5-0.6c3.4-0.4,8.4-1,13.2-4c1.3-0.8,2.2-1.7,2.8-2.5c-4,1.7-7.5,2.8-11,3.5h0
			c-4.3,0.8-6.5,1.6-8.8,2.5c-2.4,0.9-5,1.8-10.1,2.8C174.2,408.5,171.5,408.8,168.6,408.7L168.6,408.7z M195.6,402.2L195.6,402.2z" />
		</g>
		<g>
			<path class="st1" d="M199.2,391.1c0,0-0.3,23.5-1,28.5s0.3,11.4,8,11.4s22.8-5,28.1-6s14.1-3.4,17.8-11.7s-18.8-7.4-18.8-7.4
			l1.3-17.1C234.7,388.8,211.6,393.5,199.2,391.1L199.2,391.1z" />
			<path class="st1" d="M206.2,431.6c-2.9,0-5.1-0.9-6.6-2.6c-2.4-2.8-2.3-7.1-1.9-9.5c0.7-4.9,1-28.2,1-28.4c0-0.2,0.1-0.3,0.2-0.5
			c0.1-0.1,0.3-0.1,0.5-0.1c12.1,2.3,34.9-2.2,35.1-2.3l0.1,0.6l0.6,0l-1.2,16.4c3.1-0.1,15.6,0,18.5,4.2c0.8,1.2,0.9,2.5,0.2,4
			c-4.2,9.4-14.8,11.4-18.2,12c-1.6,0.3-4.2,1-7.2,1.8C220.2,429.3,211.6,431.6,206.2,431.6L206.2,431.6z M199.8,391.8
			c-0.1,4-0.4,23.3-1,27.9c-0.3,2.1-0.5,6.1,1.7,8.5c1.3,1.5,3.2,2.2,5.8,2.2c5.2,0,14.1-2.4,20.6-4.1c3-0.8,5.7-1.5,7.3-1.8
			c9-1.7,14.7-5.4,17.4-11.4c0.5-1.1,0.5-2.1-0.1-2.9c-2.4-3.5-13.9-3.9-18.2-3.7c-0.2,0-0.3-0.1-0.4-0.2c-0.1-0.1-0.2-0.3-0.2-0.5
			l1.2-16.3C229.1,390.8,210.2,393.5,199.8,391.8L199.8,391.8z" />
		</g>
		<g>
			<path class="st2" d="M252.2,413.3c0.4-0.8,0.5-1.7,0.3-2.6c-2.3,3.1-5.4,5.5-9,7c-8,3.4-23.1,7-34.5,8.7
			c-5.2,0.8-8.5-0.1-10.6-1.2c0.7,3.2,2.9,5.9,7.9,5.9c7.7,0,22.8-5,28.1-6S248.5,421.6,252.2,413.3z" />
			<path class="st1" d="M206.3,431.7c-4.6,0-7.6-2.3-8.5-6.4c-0.1-0.2,0-0.5,0.2-0.6c0.2-0.1,0.4-0.2,0.6,0c2.7,1.4,6.1,1.8,10.2,1.1
			c10.4-1.6,26-5.1,34.4-8.7c3.5-1.5,6.5-3.8,8.8-6.8c0.1-0.2,0.4-0.3,0.6-0.2c0.2,0,0.4,0.2,0.5,0.5c0.2,1,0.1,2.1-0.3,3
			c-2.8,6.3-8.9,10.4-18.2,12.1c-1.6,0.3-4.2,1-7.2,1.8C220.3,429.4,211.7,431.7,206.3,431.7L206.3,431.7z M199.3,426.3
			c1,2.8,3.4,4.2,7,4.2c5.2,0,14.1-2.4,20.6-4.1c3-0.8,5.7-1.5,7.3-1.8c9-1.7,14.7-5.5,17.4-11.5v0c0.1-0.2,0.2-0.4,0.2-0.6
			c-2.2,2.5-5,4.5-8.2,5.9c-8.5,3.6-23.9,7.1-34.6,8.7C205.3,427.6,202,427.3,199.3,426.3L199.3,426.3z" />
		</g>
		<path class="st3"
			d="M230.4,415.9c-0.2,0-0.4-0.1-0.5-0.2c-0.2-0.3-0.2-0.6,0.1-0.8c4.3-3.4,2.9-8.5,2.8-8.8
		c-0.1-0.3,0.1-0.6,0.4-0.7c0.3-0.1,0.6,0.1,0.7,0.4c0,0.1,1.8,6.1-3.2,10C230.7,415.9,230.5,415.9,230.4,415.9L230.4,415.9z" />
		<g>
			<path class="st6" d="M196.9,378.8c0,0-0.5,10.2,0.1,12.2c2.1,7.7,2.8,5.9,18.9,5.6s22.6-6.8,24.3-10.8s0-12.7-0.7-15.8
			s-6-4-8.1-3.7S197.9,375.4,196.9,378.8L196.9,378.8z" />
			<path class="st1" d="M203.9,397.6c-5,0-6-1-7.5-6.4c-0.6-2-0.2-11.3-0.1-12.4c0,0,0-0.1,0-0.1c1.2-4,33.4-12.7,35-12.9
			c2.1-0.3,7.9,0.5,8.8,4.2c0.8,3.5,2.4,12,0.7,16.2c-0.8,1.8-5.6,10.8-24.8,11.2c-3,0.1-5.4,0.2-7.4,0.2
			C206.7,397.5,205.2,397.6,203.9,397.6L203.9,397.6z M197.5,378.9c-0.1,2.9-0.4,10.4,0.1,11.9c1.6,5.8,1.9,5.8,10.8,5.4
			c2-0.1,4.5-0.2,7.5-0.2c18.5-0.3,23.1-8.8,23.8-10.4c1.7-3.9-0.1-12.8-0.7-15.4c-0.6-2.7-5.6-3.5-7.4-3.2
			C228.4,367.3,198.7,376.1,197.5,378.9L197.5,378.9z" />
		</g>
		<path class="st5" d="M86.3,404.2v22.5c0,1.8,1,3.4,2.6,4.3l36.2,18.7c1.3,0.7,2.8,0.7,4.2,0.1l53.3-20.3c1.7-0.8,2.9-2.5,2.9-4.4
		v-27.2l-61,18.4L86.3,404.2z" />
		<g>
			<defs>
				<path id="SVGID_1_" d="M86.3,404.2v22.5c0,1.8,1,3.4,2.6,4.3l36.2,18.7c1.3,0.7,2.8,0.7,4.2,0.1l53.3-20.3
				c1.7-0.8,2.9-2.5,2.9-4.4v-27.2l-61,18.4L86.3,404.2z" />
			</defs>
			<clipPath id="SVGID_00000073711981219730682510000001476609373192443275_">
				<use xlink:href="#SVGID_1_" style="overflow:visible;" />
			</clipPath>
			<g style="clip-path:url(#SVGID_00000073711981219730682510000001476609373192443275_);">
				<path class="st9" d="M127.2,415.5l-2.7,0.8l-38.2-12.1v22.5c0,1.8,1,3.4,2.6,4.3l36.2,18.7c0.6,0.3,1.3,0.5,2.1,0.5L127.2,415.5
				L127.2,415.5z" />
			</g>
		</g>
		<path class="st1" d="M127.2,450.8c-0.8,0-1.7-0.2-2.4-0.6l-36.2-18.7c-1.8-1-2.9-2.8-2.9-4.8v-22.5c0-0.2,0.1-0.4,0.2-0.5
		c0.2-0.1,0.3-0.1,0.5-0.1l38,12l60.8-18.4c0.2,0,0.4,0,0.5,0.1s0.2,0.3,0.2,0.5v27.2c0,2.1-1.3,4-3.2,4.9l-53.3,20.3
		C128.8,450.7,128,450.8,127.2,450.8L127.2,450.8z M86.9,405v21.7c0,1.6,0.9,3,2.3,3.8l36.2,18.7c1.1,0.6,2.4,0.6,3.7,0.1l53.3-20.3
		c1.5-0.7,2.5-2.2,2.5-3.8v-26.4l-60.2,18.2c-0.1,0-0.2,0-0.3,0L86.9,405L86.9,405z" />
		<path class="st10"
			d="M142,366.2L83.5,385c-0.9,0.3-1.6,1.2-1.6,2.2v16.7c0,0.9,0.5,1.6,1.3,2l40.8,19.4c0.6,0.3,1.2,0.3,1.8,0.1
		l61.2-22.9c0.9-0.3,1.5-1.2,1.5-2.1l0.1-15.6c0-1.1-0.7-2-1.8-2.2l-43.6-16.3C142.8,366.1,142.4,366.1,142,366.2L142,366.2z" />
		<g>
			<defs>
				<path id="SVGID_00000139290613276547357620000012607531400818210715_" d="M142,366.2L83.5,385c-0.9,0.3-1.6,1.2-1.6,2.2v16.7
				c0,0.9,0.5,1.6,1.3,2l40.8,19.4c0.6,0.3,1.2,0.3,1.8,0.1l61.2-22.9c0.9-0.3,1.5-1.2,1.5-2.1l0.1-15.6c0-1.1-0.7-2-1.8-2.2
				l-43.6-16.3C142.8,366.1,142.4,366.1,142,366.2L142,366.2z" />
			</defs>
			<clipPath id="SVGID_00000169556894485299794310000018117999394396482483_">
				<use xlink:href="#SVGID_00000139290613276547357620000012607531400818210715_"
					style="overflow:visible;" />
			</clipPath>
			<g style="clip-path:url(#SVGID_00000169556894485299794310000018117999394396482483_);">
				<g>
					<path class="st5" d="M123.9,425.2L123.9,425.2c0.6,0.3,1.2,0.3,1.8,0.1l61.3-22.9c0.9-0.3,1.5-1.2,1.5-2.1l0.1-15.6
					c0-0.5-0.2-1-0.5-1.5l-63.2,23.4C124.9,406.6,123.9,425.2,123.9,425.2z" />
					<path class="st12" d="M123.9,425.2L123.9,425.2c0.6,0.3,1.2,0.3,1.8,0.1l61.3-22.9c0.9-0.3,1.5-1.2,1.5-2.1l0.1-15.6
					c0-0.5-0.2-1-0.5-1.5l-63.2,23.4C124.9,406.6,123.9,425.2,123.9,425.2z" />
					<path class="st5" d="M81.9,387.1v16.7c0,0.9,0.5,1.6,1.3,2l40.8,19.5c0.3,0.1,0.6,0.2,0.9,0.2v-18.9L82,386.7
					C82,386.8,81.9,387,81.9,387.1L81.9,387.1z" />
				</g>
			</g>
		</g>
		<path class="st1" d="M125,426.1c-0.4,0-0.8-0.1-1.2-0.3l-40.8-19.4c-1.1-0.5-1.6-1.5-1.6-2.5v-16.7c0-1.2,0.8-2.4,2-2.8l58.5-18.8
		c0,0,0,0,0,0c0.6-0.1,1.1-0.1,1.6,0.1L187,382c1.3,0.3,2.2,1.4,2.2,2.8l-0.1,15.6c0,1.2-0.8,2.3-1.9,2.7L126,426
		C125.7,426.1,125.3,426.1,125,426.1L125,426.1z M142.2,366.8l-58.5,18.8c-0.7,0.2-1.2,0.9-1.2,1.6v16.7c0,0.8,0.5,1.2,1,1.5
		l40.8,19.4c0.4,0.2,0.9,0.2,1.4,0.1l61.2-22.9c0.6-0.2,1.1-0.9,1.1-1.5l0.1-15.6c0-0.8-0.5-1.5-1.3-1.6c0,0-0.1,0-0.1,0L143,366.9
		C142.7,366.7,142.5,366.7,142.2,366.8L142.2,366.8z" />
		<g>
			<path class="st1" d="M222.4,335.5c0,0,7.7,3.7,11.7,11.1s1,21.4-1.4,25.8s-18.1,6.4-23.4,6.4s-6.4-0.7-6.4-0.7s-17.1,3.4-27.8,5.4
			s-8-23.1-4.7-34.5s22.1-17.1,29.8-17.1S222.4,335.5,222.4,335.5L222.4,335.5z" />
			<path class="st1" d="M173.9,384.2c-1.6,0-2.9-0.6-4-1.8c-5.3-5.8-2.7-24.8-0.1-33.6c3.3-11.3,21.8-17.5,30.4-17.5
			c7.7,0,21.8,3.5,22.3,3.6c0,0,0.1,0,0.1,0c0.3,0.2,7.9,3.9,12,11.4c4.2,7.8,0.9,22.2-1.4,26.4c-2.7,5-19.8,6.7-23.9,6.7
			s-5.9-0.4-6.5-0.7c-1.9,0.4-17.6,3.5-27.6,5.4C174.8,384.2,174.3,384.2,173.9,384.2L173.9,384.2z M200.2,332.5
			c-8.3,0-26.1,5.9-29.2,16.7c-2.9,10.1-4.6,27.5-0.1,32.5c1.1,1.2,2.4,1.6,4.1,1.3c10.6-2,27.6-5.4,27.8-5.4c0.1,0,0.3,0,0.4,0.1
			c0,0,1.2,0.6,6.1,0.6c5.7,0,20.7-2.1,22.9-6.1c2.2-4,5.4-17.8,1.4-25.2c-3.7-6.8-10.7-10.5-11.4-10.8
			C221.1,335.8,207.5,332.5,200.2,332.5L200.2,332.5z" />
		</g>
		<path class="st3"
			d="M202.9,378.7c-0.2,0-0.5-0.1-0.6-0.4c-0.1-0.3,0.1-0.6,0.4-0.8c0.1,0,14.2-5.1,20.1-17.5
		c0.1-0.3,0.5-0.4,0.8-0.3c0.3,0.1,0.4,0.5,0.3,0.8c-6,12.9-20.6,18.1-20.7,18.1C203,378.7,203,378.7,202.9,378.7L202.9,378.7z" />
		<path class="st3" d="M216.6,371.3c-0.2,0-0.5-0.1-0.6-0.4c-0.1-0.3,0-0.6,0.3-0.8c4.6-1.9,8.8-4.7,12.2-8.3c0.2-0.2,0.6-0.2,0.8,0
		c0.2,0.2,0.2,0.6,0,0.8c-3.5,3.6-7.9,6.6-12.6,8.5C216.7,371.3,216.7,371.3,216.6,371.3L216.6,371.3z" />
		<g>
			<path class="st6"
				d="M182.8,346.6c0,0,4,21.1,2,29.8s-13.7,10.1-16.4,9s-1.3-21.8-1.3-32.2S177.4,343.6,182.8,346.6L182.8,346.6z" />
			<path class="st1" d="M170.8,386.3c-1.1,0-2-0.1-2.6-0.4c-2.3-0.9-2.2-9.7-1.8-23.9c0.1-3.3,0.2-6.3,0.2-8.8c0-4.7,2.1-6.9,3.8-8
			c3.8-2.2,9.2-1.1,12.8,0.8c0.1,0.1,0.3,0.2,0.3,0.4c0.2,0.9,4,21.3,2,30c-0.8,3.3-2.9,6-6.3,7.7
			C176.2,385.7,173.1,386.3,170.8,386.3L170.8,386.3z M175.3,345.2c-1.6,0-3.1,0.3-4.4,1c-2.1,1.3-3.2,3.6-3.2,6.9
			c0,2.5-0.1,5.6-0.2,8.9c-0.2,8.3-0.6,22.1,1.1,22.8c1.3,0.5,5.9,0.4,9.9-1.6c2.1-1.1,4.9-3.2,5.7-6.9c1.8-7.9-1.5-26.8-1.9-29.3
			C180.2,345.9,177.7,345.2,175.3,345.2L175.3,345.2z" />
		</g>
		<path class="st5" d="M97.3,290.3c0,0-2.3,13.7-0.7,20.5c0.9,3.7,2.4,7.3,4.7,10.4c0,0-8.4,12.4-6.7,22.8s6,11.7,6,11.7
		s-3.7,19.1,3,25.8s21.4,14.1,37.9,11.1s27.5-3.7,30.8-9.4s1.3-30.8,1.3-30.8s-0.7-27.8-1.3-44.9s-3-30.8-11.1-37.5
		s-43.6,3.7-54.3,10.7S97.3,290.3,97.3,290.3L97.3,290.3z" />
		<g>
			<defs>
				<path id="SVGID_00000006704604365407090720000013254465782056403104_" d="M97.3,290.3c0,0-2.3,13.7-0.7,20.5
				c0.9,3.7,2.4,7.3,4.7,10.4c0,0-8.4,12.4-6.7,22.8s6,11.7,6,11.7s-3.7,19.1,3,25.8s21.4,14.1,37.9,11.1s27.5-3.7,30.8-9.4
				s1.3-30.8,1.3-30.8s-0.7-27.8-1.3-44.9s-3-30.8-11.1-37.5s-43.6,3.7-54.3,10.7S97.3,290.3,97.3,290.3L97.3,290.3z" />
			</defs>
			<clipPath id="SVGID_00000002342769467711475130000017470547554944147328_">
				<use xlink:href="#SVGID_00000006704604365407090720000013254465782056403104_"
					style="overflow:visible;" />
			</clipPath>
			<g style="clip-path:url(#SVGID_00000002342769467711475130000017470547554944147328_);">
				<path class="st14" d="M99.7,290.3c0,0-2.3,13.7-0.7,20.5c0.8,3.7,2.4,7.3,4.7,10.4c0,0-8.4,12.4-6.7,22.8s6,11.7,6,11.7
				s-3.7,19.1,3,25.8s21.5,14.1,37.9,11.1s27.5-3.7,30.8-9.4s1.3-30.8,1.3-30.8s-0.7-27.8-1.3-44.9s-3-30.8-11.1-37.5
				s-43.6,3.7-54.3,10.7S99.7,290.3,99.7,290.3L99.7,290.3z" />
			</g>
		</g>
		<path class="st1" d="M134,393.9c-12.9,0-24.6-5.7-30.8-11.9c-6.3-6.3-3.8-22.8-3.2-25.9c-1.2-0.7-4.5-3.3-5.9-12
		c-1.6-9.7,5.2-20.7,6.6-22.9c-2.1-2.9-3.6-6.3-4.6-10.3c-1.6-6.6,0.4-19.1,0.7-20.6c-0.2-0.9,0.3-3.9,9.9-10.1
		c10-6.6,46.4-17.8,55-10.7c9.1,7.5,10.8,23.4,11.3,37.9c0.6,16.9,1.3,44.6,1.3,44.9c0.1,1,2,25.3-1.4,31.1
		c-2.8,4.9-10.8,6.2-22.8,8.2c-2.6,0.4-5.4,0.9-8.4,1.4C139.1,393.7,136.5,393.9,134,393.9L134,393.9z M152.2,268.5
		c-13.5,0-36.6,7.3-44.9,12.8c-9.8,6.4-9.4,8.9-9.4,8.9c0,0.1,0,0.2,0,0.3c0,0.1-2.3,13.7-0.7,20.3c1,3.9,2.5,7.4,4.6,10.2
		c0.2,0.2,0.2,0.5,0,0.7c-0.1,0.1-8.2,12.3-6.6,22.4c1.6,9.8,5.6,11.2,5.6,11.2c0.3,0.1,0.5,0.4,0.4,0.7c0,0.2-3.6,18.9,2.8,25.3
		c7.2,7.2,22,13.7,37.4,10.9c3-0.5,5.8-1,8.4-1.4c11.7-2,19.4-3.2,22-7.7c3.2-5.5,1.2-30.2,1.2-30.5c0-0.3-0.7-28-1.3-44.9
		c-0.7-20.2-4-31.3-10.9-37.1C159.1,269,156.1,268.4,152.2,268.5L152.2,268.5z" />
		<path class="st1"
			d="M124.4,328.8c-8.3,0-16.5-2.5-23.4-7.2c-0.3-0.2-0.3-0.6-0.2-0.8c0.2-0.3,0.6-0.3,0.8-0.2
		c10.2,7,23.5,8.9,35.4,4.9c0.3-0.1,0.6,0.1,0.8,0.4s-0.1,0.6-0.4,0.8C133.2,328.1,128.8,328.8,124.4,328.8L124.4,328.8z" />
		<path class="st1"
			d="M122.4,363.8c-13.9,0-22-7.7-22.1-7.8c-0.2-0.2-0.2-0.6,0-0.8c0.2-0.2,0.6-0.2,0.8,0
		c0.2,0.2,17.1,16.3,44.5,0.6c0.3-0.2,0.6-0.1,0.8,0.2s0.1,0.6-0.2,0.8C137.1,362.1,129,363.8,122.4,363.8L122.4,363.8z" />
		<path class="st6" d="M167.4,273.9c0,0-6.4-9.7-15.1-15.1s-31.2-9.4-40.2-11.1s-18.8-1-21.5,9s-2.3,26.8,0.3,34.2
		s13.7,11.7,22.5,6.7s32.8-24.5,41.2-25.5S166.7,277.5,167.4,273.9z" />
		<g>
			<defs>
				<path id="SVGID_00000056391365997956022800000005072300347048806809_"
					d="M167.4,273.9c0,0-6.4-9.7-15.1-15.1
				s-31.2-9.4-40.2-11.1s-18.8-1-21.5,9s-2.3,26.8,0.3,34.2s13.7,11.7,22.5,6.7s32.8-24.5,41.2-25.5S166.7,277.5,167.4,273.9z" />
			</defs>
			<clipPath id="SVGID_00000005964644974271242310000015145737047018777515_">
				<use xlink:href="#SVGID_00000056391365997956022800000005072300347048806809_"
					style="overflow:visible;" />
			</clipPath>
			<g style="clip-path:url(#SVGID_00000005964644974271242310000015145737047018777515_);">
				<path class="st14" d="M148.8,272c5.1-2.1-7.7,1.7-8.5,0.4s8.9-7.7,11.1-8.5s-12.4,2.1-11.9,0s14.1-2.6,4.7-4.7s-40-7.7-46-9.8
				c-0.5-0.1-0.9-0.4-1.3-0.6c-3.1,1.6-5.4,4.6-6.2,8c-2.7,10-2.3,26.8,0.3,34.2c2.3,6.4,11,10.5,19,8.2c3.7-3,7.1-6.9,12.9-10.6
				C134.3,281.3,143.7,274.1,148.8,272L148.8,272z" />
			</g>
		</g>
		<path class="st1" d="M105.2,300.4c-2.1,0-4.2-0.4-6.2-1.1c-4.2-1.6-7.3-4.5-8.6-8.1c-2.8-7.8-2.9-25-0.3-34.5
		c2.3-8.5,10-11.7,22.2-9.4l1.6,0.3c9.9,1.9,30.5,5.7,38.8,10.9c8.7,5.4,15.2,15.2,15.3,15.3c0.1,0.1,0.1,0.3,0.1,0.4
		c-0.1,0.8-0.4,1.2-0.9,1.5c-0.8,0.4-1.7-0.1-3.1-0.8c-2-1-5.1-2.5-9.4-2c-5.4,0.6-18.1,9.6-28.2,16.8c-5.3,3.7-9.8,7-12.8,8.6
		C111.1,299.6,108.1,300.4,105.2,300.4L105.2,300.4z M105,247.6c-7.6,0-12.2,3.1-13.9,9.3c-2.8,10.4-2.1,27,0.3,33.9
		c1.1,3.2,4.1,6,7.9,7.4c4.6,1.7,9.6,1.3,13.7-1c2.9-1.6,7.4-4.9,12.7-8.6c10.8-7.6,23-16.3,28.7-17c4.7-0.5,7.9,1.1,10,2.1
		c0.8,0.4,1.7,0.9,2,0.8c0,0,0.1-0.1,0.2-0.4c-1-1.4-7-9.9-14.8-14.7c-8.1-5.1-28.6-8.9-38.4-10.7l-1.6-0.3
		C109.4,247.8,107.1,247.6,105,247.6L105,247.6z" />
		<g>
			<path class="st5" d="M203.6,319.4c0,0,7.7,1,12.7,3s8.4,14.4,6.4,16.1s-6-0.3-6-0.3c-3.2,1.1-6.4,1.9-9.7,2.3
			C202.9,340.9,198.6,321.8,203.6,319.4z" />
			<path class="st1" d="M206.9,341.1c-2.7,0-4.5-5.6-4.9-7.3c-1.4-5-2.2-13.2,1.4-14.9c0.1,0,0.2-0.1,0.3,0c0.3,0,7.8,1,12.8,3
			c3.8,1.5,6.5,8.2,7.2,12.4c0.3,1.7,0.4,3.9-0.6,4.7c-2,1.7-5.5,0.3-6.4-0.1c-3.4,1.1-6.5,1.9-9.6,2.2
			C207,341.1,206.9,341.1,206.9,341.1L206.9,341.1z M203.7,320c-2.3,1.4-2.2,8-0.6,13.4c1.2,4.4,2.9,6.5,3.9,6.5
			c3.1-0.4,6.2-1.1,9.6-2.3c0.1,0,0.3,0,0.5,0c1,0.5,4,1.6,5.4,0.4c0.3-0.2,0.6-1.2,0.2-3.6c-0.8-4.6-3.4-10.3-6.4-11.5
			C211.6,321.2,204.9,320.2,203.7,320L203.7,320z" />
		</g>
		<g>
			<path class="st6" d="M178.1,318.4c0,0,1.3,0,8.7-3.4s13.4-3.4,18.1,4s6.7,16.4,4,21.8s-12.7,9-18.1,9s-6-7-6-7s-0.7-11.1-4-15.1
			S176.8,319.4,178.1,318.4z" />
			<path class="st1" d="M190.8,350.4c-4.7,0-6.4-4.9-6.6-7.5c0-0.1-0.7-11-3.9-14.8c-2.7-3.2-3.6-6.6-3.4-8.5
			c0.1-0.8,0.4-1.4,0.8-1.7c0.1-0.1,0.2-0.1,0.3-0.1c0.1,0,1.6-0.2,8.5-3.4c8.7-4,14.5-2.7,18.9,4.2c5.1,8,6.7,17,4,22.4
			S196.4,350.4,190.8,350.4L190.8,350.4z M178.4,319c-0.1,0.2-0.2,0.4-0.3,0.8c-0.2,1.6,0.7,4.6,3.2,7.6c3.4,4.1,4.1,15,4.1,15.4
			c0,0.2,0.6,6.4,5.4,6.4c5.3,0,15.1-3.6,17.6-8.7c2.5-4.9,0.8-13.6-4-21.2c-4.1-6.4-9.2-7.5-17.4-3.8
			C181.1,318.3,179.1,318.8,178.4,319z" />
		</g>
		<path class="st5" d="M153.3,273.9c7.4-2.7,16.8-1,20.1,8.4s6.4,36.9,6.4,36.9s8.4,1,11.7,4.7s5,13.1,4.4,17.8s-12.4,13.4-25.8,13.7
		s-23.1-6-27.8-23.1s-2.8-43.2-2.8-43.2s1.7-7.7,4.3-9.4" />
		<g>
			<defs>
				<path id="SVGID_00000000910072618595931070000017399723655626367362_"
					d="M153.3,273.9c7.4-2.7,16.8-1,20.1,8.4
				s6.4,36.9,6.4,36.9s8.4,1,11.7,4.7s5,13.1,4.4,17.8s-12.4,13.4-25.8,13.7s-23.1-6-27.8-23.1s-2.8-43.2-2.8-43.2s1.7-7.7,4.3-9.4" />
			</defs>
			<clipPath id="SVGID_00000157283641416957612780000001029725228654713779_">
				<use xlink:href="#SVGID_00000000910072618595931070000017399723655626367362_"
					style="overflow:visible;" />
			</clipPath>
			<g style="clip-path:url(#SVGID_00000157283641416957612780000001029725228654713779_);">
				<path class="st14" d="M195.9,341.5c0.7-4.7-1-14.1-4.4-17.8l-0.4-0.4c0.4,3,0.6,6,0.7,9.1c0.7,19.7-26.8,16.4-32.4,2.1
				c-3-7.7-3.8-41.3-12.8-43.9c-5.2-1.5-6.9,2.6-7.5,6.3c-0.2,9.6,0.1,24.5,3.1,35.2c4.7,17.1,14.4,23.5,27.8,23.1
				S195.2,346.2,195.9,341.5L195.9,341.5z" />
			</g>
		</g>
		<path class="st1" d="M169.2,356c-14.1,0-23.1-7.7-27.5-23.5c-4.7-17-2.8-43.1-2.8-43.4c0.2-0.9,1.8-8.1,4.6-9.9
		c0.3-0.2,0.6-0.1,0.8,0.2c0.2,0.3,0.1,0.6-0.2,0.8c-2,1.3-3.6,7-4,9c0,0.2-1.8,26.1,2.8,42.9c4.3,15.8,13,23,27.2,22.7
		c13.4-0.3,24.7-9,25.2-13.2c0.6-4.3-1-13.7-4.2-17.3c-3.1-3.5-11.2-4.5-11.3-4.5c-0.3,0-0.5-0.2-0.5-0.5c0-0.3-3.1-27.5-6.4-36.8
		c-1.3-3.6-3.6-6.3-6.8-7.8c-3.6-1.7-8.2-1.8-12.6-0.2c-0.3,0.1-0.6,0-0.8-0.4s0.1-0.6,0.4-0.8c4.6-1.7,9.6-1.6,13.5,0.3
		c3.4,1.6,6,4.6,7.4,8.5c3.1,8.8,5.9,32.8,6.4,36.6c1.9,0.3,8.6,1.5,11.6,4.8c3.5,3.9,5.1,13.6,4.6,18.3c-0.7,5.3-13,13.9-26.4,14.2
		C169.8,356,169.5,356,169.2,356L169.2,356z" />
		<path class="st1"
			d="M169,338.6c-0.2,0-0.4-0.1-0.5-0.3c-0.1-0.3,0-0.6,0.3-0.8c12.8-6.4,10.6-17.8,10.5-18.2
		c-0.1-0.3,0.1-0.6,0.5-0.7c0.3-0.1,0.6,0.1,0.7,0.5c0,0.1,2.5,12.7-11.1,19.6C169.2,338.6,169.1,338.6,169,338.6L169,338.6z" />
	</g>
	<g id="l">
		<animateTransform attributeName="transform" attributeType="XML" type="translate" dur="5s" values="0,0;0,-20;0,0"
			repeatCount="indefinite" />
		<g>
			<rect x="289.7" y="273.7" class="st5" width="103.7" height="83.1" />
			<path class="st1" d="M393.4,357.4H289.7c-0.3,0-0.6-0.3-0.6-0.6v-83.1c0-0.3,0.3-0.6,0.6-0.6h103.7c0.3,0,0.6,0.3,0.6,0.6v83.1
			C394,357.1,393.7,357.4,393.4,357.4L393.4,357.4z M290.3,356.2h102.5v-81.9H290.3V356.2z" />
		</g>
		<rect x="289.7" y="273.7" class="st17" width="103.7" height="83.1" />
		<text id="_x34_04" transform="matrix(1 0 0 1 298.3438 330.4414)" class="st18 st19 st20"
			font-weight="bold">404</text>
		<path class="st1" d="M338.5,273.3v-4.8c0-0.7-0.5-1.2-1.2-1.2s-1.2,0.5-1.2,1.2v4.8H338.5L338.5,273.3z" />
		<path class="st1"
			d="M348,261.8v0.2c-0.2-0.4-0.6-0.6-1-0.6c-0.7,0-1.2,0.5-1.2,1.2l0,0v12.7c0,2-1.6,3.7-3.7,3.7
		c-0.5,0-1-0.1-1.5-0.3c-0.5,0.8-0.4,1.9,0.3,2.6c0.4,0.1,0.8,0.1,1.2,0.1c3.3,0,6-2.7,6-6v-5.9h2.7L348,261.8L348,261.8z" />
	</g>
</svg>