<svg xmlns="http://www.w3.org/2000/svg" viewBox="0 0 558 558"><defs><style>.a{fill:#6d6e71;}.b{fill:#58595b;}</style></defs><path class="a" d="M549.77,240.32c-5.76-9.84-29-20.68-48.56-28.41a228.67,228.67,0,0,0-18.74-44.61c8.68-19.86,17.27-39.63,15.34-52.4-2.92-19.34-34.9-49.55-54.71-54.71-11-2.88-35.16,5.89-54.42,14.27A225.28,225.28,0,0,0,343.9,56.11C336,36,328.08,15.88,317.68,8.23,302-3.38,258-2.09,240.32,8.23c-9.84,5.76-20.68,29.05-28.41,48.56A228.67,228.67,0,0,0,167.3,75.53c-19.86-8.68-39.63-17.27-52.4-15.34-19.34,2.92-49.55,34.9-54.71,54.71-2.88,11,5.89,35.16,14.27,54.42A225.28,225.28,0,0,0,56.11,214.1C36,222,15.88,229.92,8.23,240.32c-11.61,15.73-10.32,59.7,0,77.36,5.76,9.84,29.05,20.68,48.56,28.41A228.67,228.67,0,0,0,75.53,390.7c-8.68,19.86-17.27,39.63-15.34,52.4,2.92,19.34,34.9,49.55,54.71,54.71,11,2.88,35.16-5.89,54.42-14.27a225.28,225.28,0,0,0,44.78,18.35c7.91,20.16,15.82,40.23,26.22,47.88,15.73,11.61,59.7,10.32,77.36,0,9.84-5.76,20.68-29,28.41-48.56a228.67,228.67,0,0,0,44.61-18.74c19.86,8.68,39.63,17.27,52.4,15.34,19.34-2.92,49.55-34.9,54.71-54.71,2.88-11-5.89-35.16-14.27-54.42a225.28,225.28,0,0,0,18.35-44.78c20.16-7.91,40.23-15.82,47.88-26.22C561.38,302,560.09,258,549.77,240.32ZM279,395.05A116.05,116.05,0,1,1,395.05,279,116.05,116.05,0,0,1,279,395.05Z"/><path class="b" d="M279,85.59C172.18,85.59,85.59,172.18,85.59,279S172.18,472.41,279,472.41,472.41,385.82,472.41,279,385.82,85.59,279,85.59Zm0,309.46A116.05,116.05,0,1,1,395.05,279,116.05,116.05,0,0,1,279,395.05Z"/></svg>