<svg xmlns="http://www.w3.org/2000/svg" width="46mm" height="46mm"><svg id="SvgjsSvg1011" viewBox="0 0 173.86 173.86" version="1.1" width="46mm" height="46mm" xmlns="http://www.w3.org/2000/svg" xmlns:svg="http://www.w3.org/2000/svg"><defs id="SvgjsDefs1009"><style id="SvgjsStyle1008">.b{fill:#485e7f}.c{fill:#231f20}@media (prefers-color-scheme:light){:root{filter:none}}</style></defs><rect id="SvgjsRect1007" width="173.6" height="173.6" x=".13" y=".13" ry="86.8" fill="#e0fbfc" stroke-width="1.9" fill-opacity="1" style="fill:#293241;fill-opacity:1"/><g id="SvgjsG1006" transform="translate(-24.37 -60.97)"><path d="M99 109.8v75.7c0 7 0 11.3-12.6 12.6-12.6 1.4-12.6-5.6-12.6-12.6v-75.7a12.6 12.6 0 1 1 25.2 0z" class="b" id="SvgjsPath1005" stroke-width=".3" style="fill:#98c1d9;fill-opacity:1"/><path d="m99.3 109.6.7 76c0 3.2.2 6.8-2 9.3-3 3.3-7.9 3.8-12 4.3-2 .2-4.2.2-6.3-.3-8-1.7-7-10-7-16.3l.7-72.8v-.3h.4l-.3.3a13 13 0 0 1 25.9 0l-.4-.3h.3zm-.5.5h.2l-.3-.3a12.25 12.25 0 1 0-24.5 0v.4h-.4l.4-.4.7 75.8c0 4.5-.2 10.2 5.2 11.3a18 18 0 0 0 5.7.3c3.6-.4 8.2-.9 10.6-3.5 1.8-2 1.7-5.4 1.7-8z" class="c" id="SvgjsPath1004" stroke-width=".3"/><circle cx="113.3" cy="158.5" r="10.8" class="b" id="SvgjsCircle1003" stroke-width=".3" style="fill:#98c1d9;fill-opacity:1"/><path d="M123.4 158.4c0-9-10.9-14-17.3-7.2a10.4 10.4 0 0 0 3.3 16.7 10.1 10.1 0 0 0 14-9.4zm1.3 0a11.5 11.5 0 0 1-19.5 8.1 11.2 11.2 0 0 1 3.8-18.4 11.4 11.4 0 0 1 15.7 10.4z" class="c" id="SvgjsPath1002" stroke-width=".3"/><path d="M149.5 109.8c-1.2 8.2-4.2 12.6-9.4 12.6H83.3c-5.3 0-9.5-2.4-9.5-12.6 0-10.1 4.2-12.6 9.5-12.6H140c5.2 0 10.6 4.5 9.4 12.6z" class="b" id="SvgjsPath1001" stroke-width=".3" style="fill:#98c1d9;fill-opacity:1"/><path d="M149.9 109.9c-1 6-3.3 13.4-10.8 13l-44.4.3H84.3c-3.9.2-7.7-.9-9.6-4.6-1.6-3.3-1.7-7-1.6-10.6.2-3.5 1-7.7 4.2-9.9 1.9-1.4 4.3-1.6 6.7-1.6h3.8l52.3.4c7 0 10.9 6.5 9.8 13zm-.7-.1c1-6.1-2.6-12-9.1-12.3l-52.3.4H84c-2 0-4.2.3-5.8 1.4-2.7 2-3.3 5.6-3.5 8.8 0 3.3 0 6.9 1.5 9.8 1.6 3.2 4.8 4 8.2 3.8h10.4l44.4.4c7 .7 9.3-6.7 10-12.3z" class="c" id="SvgjsPath1000" stroke-width=".3"/></g></svg></svg>