<?xml version="1.0" standalone="no"?>
<!DOCTYPE svg PUBLIC "-//W3C//DTD SVG 20010904//EN"
 "http://www.w3.org/TR/2001/REC-SVG-20010904/DTD/svg10.dtd">
<svg version="1.0" xmlns="http://www.w3.org/2000/svg"
 width="700.000000pt" height="700.000000pt" viewBox="0 0 700.000000 700.000000"
 preserveAspectRatio="xMidYMid meet">
<metadata>
Created by potrace 1.14, written by Peter Selinger 2001-2017
</metadata>
<g transform="translate(0.000000,700.000000) scale(0.100000,-0.100000)"
fill="#000000" stroke="none">
<path d="M3245 6984 c-346 -34 -589 -83 -849 -169 -1216 -405 -2123 -1456
-2335 -2707 -39 -228 -46 -320 -46 -608 0 -288 7 -380 46 -608 158 -931 714
-1779 1511 -2305 423 -279 876 -455 1384 -536 373 -60 822 -53 1207 19 913
172 1735 720 2250 1502 308 467 485 954 559 1538 17 140 17 640 0 780 -104
824 -437 1516 -1002 2080 -551 552 -1242 890 -2030 995 -119 16 -595 29 -695
19z m1516 -1474 c122 -38 211 -131 250 -263 55 -178 -21 -498 -149 -626 -89
-89 17 -83 -1363 -73 -1375 10 -1271 3 -1360 92 -84 84 -114 208 -107 443 4
122 9 164 26 212 42 115 98 172 200 201 47 14 174 17 911 23 1561 14 1520 14
1592 -9z m-2682 -903 c14 -16 45 -40 69 -54 88 -52 109 -54 491 -53 l353 1 -7
-838 c-4 -461 -10 -1072 -14 -1358 -7 -504 -8 -522 -30 -577 -47 -122 -168
-180 -434 -209 -245 -27 -378 19 -437 153 -33 76 -39 205 -44 1078 -4 454 -9
1082 -12 1395 l-6 570 22 -40 c12 -22 34 -53 49 -68z m1673 -1155 c40 -20 84
-52 117 -87 232 -245 104 -638 -226 -696 -217 -38 -427 121 -464 350 -30 191
89 387 279 458 24 9 70 12 133 10 84 -2 103 -6 161 -35z"/>
</g>
</svg>
