<?xml version="1.0" standalone="no"?>
<!DOCTYPE svg PUBLIC "-//W3C//DTD SVG 20010904//EN"
 "http://www.w3.org/TR/2001/REC-SVG-20010904/DTD/svg10.dtd">
<svg version="1.0" xmlns="http://www.w3.org/2000/svg"
 width="700.000000pt" height="700.000000pt" viewBox="0 0 700.000000 700.000000"
 preserveAspectRatio="xMidYMid meet">
<metadata>
Created by potrace 1.14, written by Peter Selinger 2001-2017
</metadata>
<g transform="translate(0.000000,700.000000) scale(0.100000,-0.100000)"
fill="#000000" stroke="none">
<path d="M2214 5550 c-82 -27 -153 -91 -194 -173 -45 -92 -62 -199 -58 -369 2
-79 -3 -816 -10 -1638 -11 -1121 -11 -1517 -3 -1583 26 -202 103 -299 271
-342 52 -14 93 -16 210 -12 295 11 484 81 562 207 61 98 59 53 46 1512 -6 731
-9 1330 -7 1333 3 2 385 8 850 12 l844 8 67 33 c40 19 82 50 104 75 104 120
186 408 163 572 -27 192 -144 327 -315 363 -33 7 -459 13 -1260 17 -1196 5
-1210 5 -1270 -15z"/>
<path d="M3461 3514 c-112 -30 -210 -101 -271 -196 -53 -81 -74 -165 -68 -276
4 -79 9 -100 41 -165 61 -123 150 -199 281 -239 55 -17 86 -20 161 -16 81 4
104 10 170 41 101 48 174 121 223 224 36 75 37 82 37 188 0 106 -1 113 -37
188 -97 203 -323 309 -537 251z"/>
</g>
</svg>
