<svg xmlns="http://www.w3.org/2000/svg" id="a" viewBox="0 0 221.1 293.9">
  <defs>
    <style>
      .b{fill:#485e7f}.c{fill:#231f20}
    </style>
  </defs>
  <path d="M75.4 38v216.5c0 20 0 32.2-36.1 36s-36.1-16-36.1-36V38a36 36 0 1 1 72 0h.2Z" class="b"/>
  <path d="M76 37.3c.6 51.3 1.7 167.4 2 217.5 0 9 .5 19.3-5.9 26.6-8.4 9.2-22.3 10.7-34 12.1-5.8.6-12 .7-18.1-.7-22.7-5-19.9-28.7-19.9-46.7.5-67.3 1.1-141.2 2-208.1v-1h1.2l-1 1a37 37 0 0 1 74 0l-1-1c.2 0 .6.1.8.3Zm-1.3 1.4.6.3-1-1a35 35 0 1 0-70 0v1H3.2l1-1c1 69.8 1.6 146.6 2.1 216.8.1 12.8-.5 29 15 32.3a51.7 51.7 0 0 0 16.3.8c10.2-1.2 23.2-2.5 30.3-10.1 5.1-5.8 4.6-15.3 4.7-23l2-216.1Z" class="c"/>
  <circle cx="116" cy="177.1" r="30.8" class="b"/>
  <path d="M145 177c.1-26-31.1-39.9-49.6-20.6A29.6 29.6 0 0 0 105 204a29 29 0 0 0 40.2-26.8Zm3.6 0a32.8 32.8 0 0 1-55.7 23.2 32 32 0 0 1 10.9-52.8c21.2-8 44.5 6.5 44.8 29.7Z" class="c"/>
  <path d="M219.6 38c-3.3 23.3-12 36.1-27 36.1H30.3c-15 0-27.1-7-27.1-36S15.3 2 30.2 2h162.4c15 0 30.3 12.8 27 36Z" class="b"/>
  <path d="M220.6 38.2c-2.5 17.4-9.4 38.5-30.7 37l-127 1-29.8.1c-11 .6-21.9-2.5-27.3-13.1-4.7-9.5-5-20-4.6-30.4.6-10.1 3-21.9 12-28.2a30 30 0 0 1 19-4.6h11.1l149.3 1c20 .3 31.2 18.6 28 37.2Zm-2-.3c2.9-17.5-7.2-34.5-26-35L43.3 4H32.1c-5.7 0-12 .7-16.6 4-7.7 5.5-9.5 16-10 25.1a59 59 0 0 0 4.2 28c4.6 9.3 13.8 11.3 23.4 10.9l29.9.2 126.9 1c20 1.8 26.5-19.1 28.7-35.3Z" class="c"/>
</svg>
