<svg xmlns="http://www.w3.org/2000/svg" viewBox="0 0 558 558">
  <path d="M550 240c-6-10-29-20-49-28a229 229 0 0 0-19-45c9-20 18-39 16-52-3-19-35-50-55-55-11-3-35 6-54 14a225 225 0 0 0-45-18c-8-20-16-40-26-48-16-11-60-10-78 0-10 6-20 29-28 49a229 229 0 0 0-45 19c-20-9-39-18-52-16-19 3-50 35-55 55-3 11 6 35 14 54a225 225 0 0 0-18 45c-20 8-40 16-48 26-11 16-10 60 0 78 6 10 29 20 49 28a229 229 0 0 0 19 45c-9 20-18 39-16 52 3 19 35 50 55 55 11 3 35-6 54-14a225 225 0 0 0 45 18c8 20 16 40 26 48 16 11 60 10 78 0 10-6 20-29 28-49a229 229 0 0 0 45-19c20 9 39 18 52 16 19-3 50-35 55-55 3-11-6-35-14-54a225 225 0 0 0 18-45c20-8 40-16 48-26 11-16 10-60 0-78ZM279 395a116 116 0 1 1 116-116 116 116 0 0 1-116 116Z" fill="#6d6e71"/>
  <path d="M279 86a193 193 0 1 0 0 386 193 193 0 0 0 0-386Zm0 309a116 116 0 1 1 116-116 116 116 0 0 1-116 116Z" fill="#58595b"/>
</svg>
