<svg id="Layer_1" data-name="Layer 1" xmlns="http://www.w3.org/2000/svg" viewBox="0 0 221.1 293.95"><defs><style>.cls-1{fill:#2e3192;}.cls-2{fill:#231f20;}</style></defs><path class="cls-1" d="M75.36,38V254.52c0,19.93,0,32.26-36.09,36.09S3.19,274.45,3.19,254.52V38h.09a36,36,0,1,1,72,0Z"/><path class="cls-2" d="M76.07,37.3c.5,51.34,1.65,167.46,2,217.49,0,9,.38,19.37-6,26.68-8.44,9.19-22.31,10.66-33.92,12.08a57.67,57.67,0,0,1-18.2-.68C-2.74,287.85.13,264.13.11,246.12.63,178.82,1.21,104.92,2.19,38V37H3.28l-1,1A37,37,0,0,1,13.12,11.85c18.52-18.6,50.33-12.29,60.34,12A37,37,0,0,1,76.27,38l-1-1a1.27,1.27,0,0,1,.8.29Zm-1.41,1.41a.8.8,0,0,0,.61.3l-1-1a35,35,0,0,0-2.66-13.4c-9.45-22.94-39.54-29-57.08-11.35A35.06,35.06,0,0,0,4.28,38v1H3.19l1-1c1,69.85,1.65,146.61,2.16,216.78.06,12.81-.52,29,15,32.36,5.11,1.26,10.75,1.23,16.31.78,10.16-1.17,23.12-2.53,30.24-10.11,5.12-5.74,4.65-15.33,4.74-23,.37-48.92,1.53-165.85,2-216.08Z"/><circle class="cls-1" cx="116.04" cy="177.1" r="30.79"/><path class="cls-2" d="M145.06,177.1c0-26.14-31.21-40-49.64-20.63C81.38,171,86.28,196,105,203.88c18.85,8.17,40.18-6.39,40.11-26.78Zm3.54,0c-.11,29.06-34.94,43.15-55.7,23.14-16.68-16.21-10.84-44.5,10.86-52.8,21.28-8,44.56,6.47,44.84,29.66Z"/><path class="cls-1" d="M219.61,38.1c-3.31,23.23-12.09,36.08-27,36.08H30.26c-14.95,0-27.07-7-27.07-36.09S15.31,2,30.25,2H192.61C207.52,2,222.93,14.87,219.61,38.1Z"/><path class="cls-2" d="M220.58,38.24c-2.1,15.67-8.75,37.15-28,36.94-51.53.64-108.73.93-160.57,1.17a36,36,0,0,1-13.95-2C3.69,69,.92,51.57,1,38.1c.13-9.22,1-18.81,6-26.95C12.34,2.33,22.46-.42,32,.05l53.52.3L192.61,1a28.29,28.29,0,0,1,12.85,3.17c12.43,6.31,17.36,20.93,15.12,34.06Zm-2-.28c2-12.4-2.38-26.06-14.08-32A26.25,26.25,0,0,0,192.61,3C157.07,3.24,66.38,3.8,32,4,17.09,3.39,8.82,10.38,6.37,25.16c-2,13.93-2.5,39.28,13.31,45.12,3.95,1.53,8.05,1.77,12.37,1.73,51.92.21,109,.57,160.57,1.17,18,.16,24.09-20.58,26-35.22Z"/></svg>