<svg id="a" xmlns="http://www.w3.org/2000/svg" viewBox="0 0 221.11 293.92">
    <defs>
        <style>
            .b{fill:#485e7f}.c{fill:#231f20}
        </style>
    </defs>
    <path class="b" d="M75.36 37.98v216.51c0 19.93-.01 32.26-36.09 36.09S3.19 274.42 3.19 254.49V37.98h.09c0-19.88 16.11-36 36-36s35.99 16.12 35.99 36h.09Z"/>
    <path class="c" d="M76.07 37.27c.5 51.33 1.65 167.46 2.01 217.49-.03 9.01.38 19.36-5.98 26.68-8.44 9.19-22.31 10.66-33.92 12.07-5.92.55-12.02.71-18.19-.67C-2.74 287.83.13 264.11.11 246.09c.52-67.3 1.1-141.2 2.08-208.11v-1h1.09l-1 1c-.04-9.7 3.95-19.33 10.83-26.16 18.53-18.6 50.34-12.29 60.35 12 1.86 4.47 2.81 9.32 2.81 14.16l-1-1c.27-.01.61.12.8.29Zm-1.41 1.41c.13.17.41.3.62.29l-1-1c0-4.58-.9-9.16-2.66-13.39C62.16 1.64 32.07-4.38 14.53 13.23 8.01 19.7 4.25 28.79 4.28 37.98v1H3.19l1-1c.99 69.85 1.65 146.61 2.15 216.78.06 12.8-.52 28.97 15 32.36 5.12 1.26 10.75 1.23 16.31.78 10.16-1.18 23.12-2.53 30.24-10.11 5.12-5.74 4.64-15.33 4.74-23.03.37-48.92 1.52-165.85 2.01-216.08Z"/>
    <circle class="b" cx="116.04" cy="177.07" r="30.79"/>
    <path class="c" d="M145.06 177.07c.04-26.13-31.21-39.96-49.64-20.62-14.04 14.55-9.13 39.54 9.53 47.41 18.85 8.17 40.18-6.39 40.11-26.78Zm3.54 0c-.11 29.07-34.94 43.16-55.7 23.14-16.67-16.21-10.84-44.5 10.86-52.8 21.28-8 44.56 6.47 44.84 29.65Z"/>
    <path class="b" d="M219.61 38.07c-3.32 23.23-12.09 36.08-26.99 36.08H30.26c-14.95 0-27.07-6.99-27.07-36.09S15.31 1.98 30.25 1.98h162.36c14.91 0 30.32 12.86 27 36.09Z"/>
    <path class="c" d="M220.58 38.21c-2.44 17.4-9.35 38.52-30.7 36.96-33.4.3-93.45.76-126.89.95l-29.86.18c-11.12.6-21.92-2.46-27.31-13.13C1.08 53.69.75 43.13 1.15 32.85c.62-10.17 3.06-21.94 11.98-28.24C18.65.67 25.58-.16 32.14.02c2.26.04 8.83.03 11.2.06 19.16.1 127.72.76 149.28.9 19.99.36 31.14 18.59 27.97 37.23Zm-1.96-.28c2.87-17.53-7.18-34.54-26.01-34.95-22.19.13-129.54.81-149.28.9-2.22.05-8.99.02-11.2.06-5.75-.12-12.08.62-16.63 4C7.84 13.54 6.02 24 5.51 33.09c-.34 9.39-.06 19.61 4.19 28.06 4.64 9.23 13.83 11.2 23.43 10.85l29.86.18c33.47.17 93.46.67 126.89.95 20.08 1.82 26.55-19.04 28.75-35.2Z"/>
</svg>
